<?xml version="1.0" encoding="UTF-8"?>
<svg id="Layer_2" data-name="Layer 2" xmlns="http://www.w3.org/2000/svg" viewBox="0 0 178.85 194.97">
  <g id="OBJECTS">
    <path d="M69.77,94.94c.01-1.66.18-3.34.81-4.89.35-.87.82-1.72,1.5-2.37.95-.91,2.23-.85,3.41-.5,1.5.45,2.96,1.2,4.27,2.05s2.18,2.24,3.31,3.33c.13.13.35.21.54.14.48-.18.87-.41,1.28-.71.16-.12.34-.31.53-.38.51-.2.85.09,1.21.49.88.95.07,2.29-.38,3.29-1.11,2.42-3.22,3.58-5.84,3.63-.6.01-.78.96-.15,1.08,1.94.38,4.11,1.18,5.55,2.6.87.86,1.15,1.8.56,2.91-.38.73-.84,1.24-1.51,1.72-.05.04-.3.27-.36.28.47-.13-.03-.09.02-.09-1.51.22-3.49-.65-4.89-1.1-1.52-.49-3.15-.97-4.54-1.77l-.56.95c1.23.56,2.4,1.28,3.5,2.06,1.32.94,3.42,2.52,3.33,4.35-.12,2.52-3.16,2.62-4.94,2.09-1.18-.35-2.34-.91-3.36-1.6-.53-.36-1.09.42-.67.86.48.51.95,1.03,1.4,1.57.52.63,1.53,1.65,1.51,2.52,0,.44-.36,1.07-.53,1.49-.3.71-.73,1.55-1.54,1.75-1.04.26-2.91-1.06-3.65-1.71-.69-.61-1.25-1.5-1.89-2.17-.9-.93-1.82-1.85-2.8-2.7-.38-.33-.82-.62-1.2-.96-.33-.3-.56-.69-.89-1.01-.83-.79-1.98-1.3-3-.57-.19.14-.33.38-.25.62,1.42,4.26,3.01,8.49,4.87,12.58.93,2.02,1.92,4.42,3.65,5.9,2.73,2.35,6.71,3.47,10.27,2.99,2.1-.28,4.22-1.2,5.7-2.75.61-.64,1.09-1.39,1.38-2.22.52-1.47.18-3,.61-4.48l-.53.4c.83.1,1.36.92,1.92,1.45s1.32.91,2.03,1.26c1.5.73,3.05,1.26,4.74,1.05,1.38-.17,2.63-.79,3.65-1.73,1.1-1.01,2.19-2.04,2.82-3.43.58-1.29.82-2.71.82-4.12,0-.88,0-1.97-.46-2.76-.94-1.61-2.67-2.91-4.04-4.12-1.3-1.14-2.62-2.25-3.97-3.32l-.39.94c2.91.39,6.36.45,9.09-.77,1.6-.72,2.75-2.07,2.74-3.89-.02-1.99-1.44-3.53-2.99-4.61-1.24-.86-2.67-1.54-4.11-1.99l.13,1.01c2.87-1.74,5.75-3.6,8.31-5.79.86-.73,2.32-1.86,2.11-3.15-.3-1.85-2.56-2.43-4.11-2.68-2.29-.36-4.7-.02-6.96-.48l.38.68c.17-.78,1.34-1.54,1.89-2.07.88-.84,1.54-1.82,2.24-2.81,1-1.41,1.51-3.6-.04-4.86-.8-.65-1.81-.68-2.8-.65-1.51.05-3.02.24-4.51.51-1.39.25-2.73.57-4.03,1.15-1.44.64-2.87,1.85-4.47,2.02l.55.55c.03-.36.46-1.21.66-1.68.41-.99.82-1.98,1.16-2.99.44-1.3,1.27-3.59.17-4.79-1.5-1.66-5.02.55-6.38,1.37-3.27,1.97-6.09,4.87-7.82,8.28-.27.54.4,1.12.86.67.74-.73,1.3-1.62,1.55-2.64.31-1.24.86-2.3,1.31-3.49.53-1.42.84-3.28.92-4.8.06-1.21-.11-2.78-1.4-3.29-1.83-.73-4.4,1.29-5.74,2.31-2.02,1.53-3.8,3.63-5.07,5.82s-1.71,4.71-2.23,7.1c-.57,2.62-1.09,5.35-2.51,7.67-.52.85-.68,1.18-1.67,1.18-.89,0-1.79-.1-2.67-.27-1.93-.36-3.45-1.49-5.09-2.53-3.18-1.99-6.28-4.13-9.23-6.44-3.54-2.76-7-5.79-9.75-9.36-2.91-3.8-5.74-7.72-8.4-11.7-2.41-3.6-4.98-7.53-5.92-11.82-.35-1.61-.42-3.38.34-4.89.7-1.37,2.17-3.43,3.95-2.66.83.36,1.52,1.26,2.46,1.33,1.28.1,1.82-1.5,2.02-2.49.46-2.18-.27-4.73,2.58-5.51,2.43-.67,4.99,1.54,7.02,2.56,1.68.84,3.22,1.48,4.65,2.76,1.69,1.51,3.12,3.32,4.4,5.19,3.03,4.43,5.39,9.36,7.97,14.05,1.18,2.14,2.35,4.3,3.27,6.57.6,1.47,1.39,3.37,1.02,5-.72,3.16-4.01-.93-4.74-1.95-6.06-8.43-7.45-19.21-9.24-29.16-.95-5.26-1.85-10.64-1.55-16,.12-2.26.49-4.52,1.29-6.65.91-2.42,2.46-4.41,4.28-6.23,1.04-1.05,2.55-2.62,4.16-2.64,1.02-.02,1.73.76,2.35,1.46.7.8,1.37,1.79,2.33,2.3,1.2.64,2.08-.03,3.08-.66,2.14-1.34,4.63,2.28,5.66,3.82,2.15,3.21,3.45,6.94,4.35,10.68,1.33,5.56,1.74,11.34,2.23,17.02.33,3.78.67,7.63.35,11.42-.09,1.14-.26,2.29-.64,3.37-.17.49-.38.98-.62,1.45-.05.09-.21.28-.21.38,0,.08-.1.68.47.2.01,0-.13-.81-.14-.9-.06-.75-.07-1.5-.09-2.25-.04-2.51-.12-5.04,0-7.54.25-5.08,1.68-10.09,3.31-14.89s3.69-9.75,5.78-14.53,4.36-9.55,7.4-13.85c1.3-1.84,2.78-3.72,4.61-5.06,1.69-1.24,3.09-1.4,5.02-.55,1.45.64,2.69,1.96,4.22,2.37.66.18,1.33.12,1.98-.04,1.06-.24,1.66-.09,2.22.91,1.08,1.92,1.15,4.49,1.42,6.63.13,1.02.38,2,.65,2.98.8,2.89,1.38,5.77,1.27,8.78-.19,5.28-2.17,10.2-4.51,14.86-3.55,7.07-7.27,14.39-12.88,20.09-1.03,1.04-2.09,2.14-3.27,2.99-.16.11-.94.75-1.18.62.08.04.06-.47.1-.66.33-1.73,1.34-3.41,2.18-4.92,1.24-2.21,2.63-4.33,4.07-6.41,5.34-7.7,11.26-15.1,17.84-21.79,3.11-3.16,6.4-6.24,10.12-8.68,2.08-1.36,4.35-2.63,6.77-3.28,1.24-.33,2.86-.61,4,.17,2.27,1.56-.09,4.47.79,6.48.75,1.72,2.87,2.42,4.21,3.55,1.74,1.47,1.89,3.4,1.2,5.47-.52,1.55-1.3,2.94-1.7,4.53-.32,1.29-.58,2.6-.95,3.88-1.25,4.31-3.84,7.93-6.99,11.08-2.49,2.49-4.87,4.99-7.13,7.69-1.66,1.99-3.53,3.59-5.7,5.01-4.03,2.64-8.32,5.01-12.65,7.12-.63.31-1.26.62-1.91.86-.17.06-1.42.32-.39.64.05.01.23-.22.43-.42.42-.44.89-.83,1.36-1.22,7.43-6.27,15.85-11.62,24.67-15.7,8.59-3.97,18.19-6.92,27.57-3.86,2.59.84,4.96,2.37,5.9,5.03.33.95.92,2.3.24,3.21-1.1,1.48-3.64,2.21-5.22,2.95-1.27.6-3.46,1.58-3.71,3.2-.18,1.15.8,1.93,1.71,2.4.69.35,5.36,1.24,4.45,2.76-.66,1.11-2.93,1.41-4.03,1.63-2.22.43-4.49.48-6.7.97-4.17.92-8.16,2.65-11.98,4.53s-7.14,3.8-10.58,5.92c-1.94,1.2-3.83,2.75-6.1,3.24-.76.17-6.98.85-5.91-.99.9-1.56,3.29-2.6,4.84-3.34,2.2-1.06,4.57-1.78,6.97-2.24,11.22-2.16,22.24,1.49,32.97,4.34,3.75,1,7.7,1.96,11.07,3.96,1.31.78,2.5,1.74,3.46,2.92,1.51,1.85,3,3.95,4.06,6.1.22.45.77,1.43.56,1.98-.28.73-1.55.42-2.12.34-1.41-.21-3.27-.35-4.14,1.07-.73,1.18-.29,2.73.23,3.9.98,2.19,2.97,3.76,3.76,6.04,1.07,3.1-1.41,6.25-4.52,6.57-2.35.25-4.77,0-7.1-.27-7-.79-13.96-2.34-20.73-4.28-3.31-.95-6.6-2.01-9.79-3.31-2.42-.98-4.93-2.09-7-3.71-.93-.73-3.94-3.66-1.43-3.95,1.49-.17,3.08.22,4.52.55,2.16.5,4.28,1.15,6.37,1.86,5.11,1.72,10.11,3.76,15.01,6,3.7,1.69,7.49,3.52,10.64,6.14,6.23,5.19,7.24,13.14,9.05,20.59.51,2.12,1.5,4.85-.16,6.69-1.18,1.31-2.86,2.29-4.33,3.22-1.74,1.1-3.25,1.58-5.21.74-.99-.42-1.99-1.15-2.97-.31-.82.69-1.07,1.98-1.28,2.97-.34,1.52-.69,6.6-2.57,6.81-.92.1-2.48-.92-3.34-1.39-2.05-1.13-4.02-2.41-5.95-3.72-5.24-3.55-10.28-7.44-15.07-11.57-4.31-3.71-8.75-7.68-12.01-12.38-.93-1.34-2.02-2.99-2.09-4.67s1.05-1.89,2.46-1.49c2.9.83,5.57,2.79,7.92,4.6,3.44,2.65,6.59,5.7,9.38,9.03,2.93,3.49,5.5,7.37,7.14,11.64,1.96,5.09,3.82,10.32,4.88,15.68.56,2.84,1.42,7.25-.74,9.68-1.08,1.22-2.75,1.25-4.18,1.8-1.61.62-3.06,1.57-4.32,2.73-.9.83-1.65,1.92-2.62,2.66-.92.7-1.3-.43-1.71-1.18-1.68-3.1-4.46-5.64-6.89-8.15-3.43-3.55-6.9-7.1-9.77-11.13-2.57-3.61-4.49-7.7-6.62-11.58s-4.16-7.55-5.83-11.51c-.35-.82-2.7-5.93-.75-6.16.83-.1,1.61.87,2.04,1.44.92,1.21,1.58,2.65,2.14,4.05,1.7,4.23,2.64,8.8,3.22,13.31.73,5.7.83,11.49.24,17.21-.54,5.18-1.64,10.3-2.3,15.46-.28,2.19-.35,4.48-.84,6.64-.21.93-.36,1.07-1.22,1.28-.91.22-1.8.36-2.62.84-.66.38-1.21.9-1.71,1.46-.32.36-.83,1.26-1.36,1.35-.71.11-1.38-.94-1.85-1.33s-1.01-.67-1.63-.68c-1.15-.01-1.98.9-2.75,1.63-.17.16-.57.66-.85.58s-.45-.69-.57-.94c-.34-.68-.69-1.36-1.04-2.04-1.21-2.37-2.4-4.75-3.54-7.16-3.17-6.67-6.12-13.54-8.05-20.69-.86-3.19-1.56-6.5-1.52-9.81.01-1.3.15-2.6.53-3.84.34-1.11.85-2.2,1.43-3.21.36-.63.95-1.72,1.74-1.92,1.25-.33,1.98,1.87,2.28,2.72.69,1.98,1.03,4.1,1.22,6.18.31,3.51-.3,6.57-1.56,9.85-1.53,3.98-3.62,7.77-6,11.3s-4.95,6.75-8.27,9.18c-1.24.9-2.63,1.52-3.84,2.45s-3.07,2.79-4.72,2.38c-1.8-.45-1.72-3.39-3.68-3.75-.48-.09-.9.05-1.33.26-.73.35-.83.33-1.45-.33-3.25-3.45-2.73-8.31-2.35-12.63.33-3.81.56-7.62.83-11.43.3-4.24.63-8.48,1.12-12.7.39-3.32.78-6.75,1.83-9.94.69-2.09,2.09-4.31,4.05-5.41,2.34-1.31,1.85,1.69,1.46,3.11-1.36,5-4.25,9.78-7.18,14.01-2.71,3.91-5.88,7.55-9.52,10.63-2.5,2.12-5.4,4.22-8.59,5.14-1.38.39-2.78.33-4.2.36-.74.02-1.72.26-2.01-.56-.18-.53-.13-1.2-.16-1.75-.06-.98-.12-1.97-.22-2.94-.12-1.15-.32-2.3-.45-3.45-.31-2.78.4-5.36,1.36-7.96s2.15-5.13,3.19-7.7,1.94-5.08,2.84-7.64c1.63-4.64,3.08-9.48,5.46-13.81.89-1.62,1.95-3.26,3.47-4.35.79-.57,3.65-2.31,3.94-.37.32,2.12-2,4.52-3.35,5.82-1.57,1.51-3.37,2.62-5.4,3.41-4.55,1.78-9.56,2.29-14.4,2.6-5.49.35-11.1.52-16.6.32-3.35-.13-6.57-1.45-8.38-4.38-1.4-2.27-1.84-5.07-1.58-7.7.1-1.04.32-2.12.75-3.08.38-.85.89-1.14,1.51-1.76,2.11-2.13-2.52-4.79.26-6.59,1.19-.77,2.63-1.3,3.91-1.94,1.69-.85,3.39-1.69,5.1-2.5,4.19-1.99,8.49-3.82,12.95-5.1,4.22-1.21,8.55-1.86,12.89-.97,3.55.72,7.29,2.07,10.21,4.27.37.28,1.86,1.33,1.54,1.96-.44.86-3.22.42-3.9.36-2.13-.2-4.22-.56-6.36-.7-2.42-.16-4.85-.22-7.28-.27-5.12-.11-10.26-.12-15.36-.63-2.8-.28-5.59-.8-8.26-1.68-2.08-.68-4.55-1.62-5.97-3.37-.5-.61-.82-1.36-.68-2.16s.77-1.45,1-2.25c.49-1.77-.09-3.73-.5-5.45-.32-1.34-1.35-4.2.13-5.16,1.8-1.18,5.01-.65,6.99-.33,3.9.62,7.74,1.83,11.49,3.06,4.04,1.32,8.04,2.79,12,4.35,4.55,1.78,9.07,3.65,13.52,5.67.64.29,1.2-.66.56-.95-5.38-2.44-10.87-4.69-16.39-6.79-4.56-1.74-9.18-3.37-13.87-4.72-4.18-1.2-9.16-2.78-13.51-1.73s-1.89,6.36-1.43,9.34c.15.99.23,2.07-.24,2.99-.39.76-.82,1.39-.85,2.29-.05,1.74,1.26,3.08,2.59,4.01,4.3,3.02,10.18,3.79,15.29,4.17,5.6.42,11.23.37,16.84.56,2.48.08,4.97.18,7.43.5,1.98.26,4.04.7,6.04.37.87-.14,1.9-.56,1.91-1.59,0-.97-.93-1.81-1.61-2.37-2.93-2.41-6.86-3.87-10.52-4.68-4.52-1-9-.49-13.43.73-4.79,1.32-9.39,3.3-13.88,5.43-1.81.86-3.6,1.76-5.39,2.65-1.37.68-3.24,1.25-4.3,2.38-.97,1.04-.74,2.3-.19,3.48.26.55.68,1.14.77,1.75.12.79-.4.92-.89,1.38-1.48,1.37-1.86,3.86-1.96,5.76-.15,2.82.47,5.8,2.12,8.13,2.01,2.85,5.26,4.19,8.67,4.39,3.06.17,6.18.03,9.24-.02s5.95-.14,8.91-.37c4.97-.38,10.16-1,14.74-3.1,2.12-.97,3.96-2.36,5.52-4.1,1.3-1.44,2.78-3.41,2.76-5.45-.04-4.13-5.36-1.19-6.8.25-3.12,3.12-4.66,7.79-6.13,11.83-2.12,5.84-4.12,11.67-6.55,17.39-1.41,3.31-3.09,6.93-3.08,10.61,0,1.2.21,2.38.37,3.57.24,1.72.31,3.45.44,5.18.07.88.1,1.98,1,2.42,1.06.52,2.67.18,3.79.17,3.11-.04,5.83-1.36,8.39-3.05,8.62-5.71,15.31-14.97,19.34-24.38.73-1.71,1.45-3.52,1.63-5.38.08-.89.05-2-.71-2.61-1.54-1.23-3.76.76-4.74,1.83-1.9,2.08-2.74,4.61-3.31,7.32-.86,4.08-1.26,8.27-1.64,12.42-.42,4.62-.72,9.25-1.04,13.88-.14,1.92-.27,3.84-.45,5.75-.21,2.29-.44,4.52-.06,6.81s1.25,4.37,2.79,6c.45.48.94,1.03,1.65.97.53-.05.89-.5,1.39-.58,1.05-.16,1.56,1.46,2.01,2.16s1.05,1.34,1.89,1.56c1.74.45,3.48-.89,4.77-1.87,1.36-1.04,2.81-1.8,4.21-2.76,1.69-1.16,3.2-2.59,4.59-4.1,3.11-3.4,5.71-7.31,7.87-11.38,1.85-3.47,3.6-7.25,4.27-11.16s.03-8.14-1.26-11.66c-.43-1.18-1.09-2.79-2.41-3.22s-2.35.66-3.02,1.62c-2.08,2.94-2.78,6.45-2.57,9.99.46,7.8,3.53,15.48,6.56,22.58,2.32,5.44,5.01,10.69,7.65,15.99.36.71.76,1.66,1.71,1.6,1.06-.07,1.73-1.31,2.53-1.86,1.7-1.16,2.44,1.31,3.97,1.62,1.31.26,2.03-1.08,2.79-1.89,1.01-1.07,2.18-1.42,3.55-1.75.41-.1.84-.2,1.18-.45,1-.73,1.01-2.33,1.15-3.44.46-3.81.9-7.61,1.5-11.4,1-6.36,1.94-12.56,1.74-19.03-.17-5.53-.89-11.1-2.35-16.45-.88-3.23-2-7.02-4.33-9.54-1.1-1.19-3.53-2.09-4.13.1-.32,1.17.1,2.53.45,3.64.56,1.77,1.33,3.47,2.12,5.14,2.09,4.4,4.5,8.65,6.83,12.92,1.18,2.16,2.26,4.38,3.61,6.44s3.02,4.17,4.7,6.11c3.28,3.77,6.94,7.19,10.24,10.94,1.14,1.29,2.07,2.62,2.92,4.11.47.82,1.18,1.76,2.25,1.47.97-.26,1.72-1.35,2.37-2.04,1.33-1.41,2.79-2.66,4.57-3.45,1.54-.68,3.34-.72,4.67-1.84,1.03-.87,1.6-2.15,1.85-3.45.81-4.16-.48-8.75-1.63-12.72-1.53-5.3-3.24-10.82-5.99-15.62-2.42-4.23-5.58-8.06-9.04-11.48-2.98-2.93-6.26-5.68-9.87-7.8-1.62-.95-4.54-2.79-6.52-1.88-1.39.64-1.42,2.53-1.09,3.8.54,2.07,1.9,3.92,3.19,5.58,1.9,2.43,4.06,4.64,6.29,6.77,5.06,4.83,10.54,9.24,16.2,13.34,2.42,1.76,4.89,3.46,7.44,5.03,1.61,1,3.29,2.05,5.09,2.68s2.97-.56,3.62-2.27c.56-1.5.77-3.11,1.09-4.67.16-.79.4-3.06,1.53-2.98.76.05,1.61.78,2.38.99s1.58.27,2.36.1c2.16-.46,4.16-2.15,5.88-3.43,2-1.49,2.93-3.1,2.59-5.63-.23-1.76-.72-3.49-1.15-5.21-.63-2.56-1.13-5.16-1.85-7.7-.97-3.47-2.46-6.78-4.88-9.48-2.67-2.97-6.21-5.04-9.75-6.81-5.04-2.53-10.3-4.7-15.59-6.64-4.13-1.51-8.61-3.26-13.05-3.49-.93-.05-2.21-.06-2.87.72s-.25,1.87.22,2.65c1.3,2.16,3.5,3.52,5.69,4.65,3.05,1.58,6.3,2.77,9.55,3.83,7.4,2.42,15.07,4.22,22.78,5.3,2.83.4,5.73.76,8.59.65,2.67-.1,4.84-1.07,6.24-3.56,1.06-1.88.73-3.98-.26-5.82-1.13-2.09-3.15-3.7-3.65-6.11-.97-4.69,6.72.22,6.57-3.92-.07-1.81-1.51-3.69-2.48-5.11-1.21-1.79-2.43-3.66-4.11-5.06-2.93-2.46-6.73-3.65-10.35-4.69-2.51-.72-5.05-1.36-7.58-2.02-3.17-.83-6.32-1.78-9.53-2.47-5.72-1.23-11.66-1.78-17.48-1-4.65.63-9.67,2.15-13.34,5.21-.78.65-1.89,1.78-1.28,2.89.49.9,1.78,1.11,2.69,1.21,2.62.29,5.43-.16,7.67-1.57,2.98-1.87,5.96-3.73,9.03-5.44,4.28-2.39,8.71-4.6,13.38-6.11,2.15-.69,4.32-1.17,6.57-1.39s4.56-.46,6.56-1.44c1.9-.92,2.36-2.77.44-3.97-1.2-.75-2.67-.83-3.91-1.5-.47-.25-1.16-.63-1.08-1.26.13-1.02,2.02-1.83,2.76-2.19,2.59-1.28,7.21-2.42,6.33-6.16-.63-2.66-2.05-4.77-4.46-6.12-3.89-2.17-9.14-2.71-13.51-2.41-4.95.34-9.8,1.96-14.35,3.85-9.87,4.1-19.05,9.92-27.34,16.65-.86.7-2.05,1.48-2.63,2.45-.37.61-.19,1.24.59,1.26,1.02.02,2.26-.79,3.14-1.22,2.45-1.19,4.83-2.52,7.2-3.86,3.33-1.88,6.85-3.79,9.61-6.49,2.06-2.02,3.74-4.42,5.74-6.51,3.57-3.74,7.37-7.12,9.45-11.98,1.21-2.82,1.41-5.95,2.61-8.75.82-1.91,1.83-3.89,1.37-6.04s-2.21-3.24-3.88-4.33c-.8-.53-1.8-1.09-2.05-2.08-.23-.92.25-1.81.38-2.71.15-1.02.03-2.11-.53-2.99-1.74-2.74-5.83-1.44-8.17-.43-4.43,1.91-8.26,4.97-11.77,8.23-7.54,6.98-14.11,15.11-20.06,23.47-2.74,3.84-5.77,7.92-7.32,12.42-.25.74-.71,2.05,0,2.69.76.68,1.88-.11,2.52-.58,5.96-4.36,10.02-11.27,13.46-17.63,2.86-5.29,5.88-10.72,7.11-16.66.76-3.7.74-7.45-.1-11.12-.29-1.26-.68-2.5-.98-3.76-.42-1.73-.49-3.52-.81-5.27-.3-1.61-.75-4.03-2.46-4.77-.7-.3-1.33-.14-2.03.02-.95.21-1.63.03-2.44-.48C99.77,1.47,97.94.06,95.9,0c-1.58-.05-3.02.88-4.19,1.84-4.07,3.35-6.85,8.5-9.16,13.14-2.43,4.88-4.53,9.97-6.51,15.05-2.07,5.33-3.96,10.83-4.87,16.5-.41,2.58-.48,5.12-.48,7.73,0,2.09-.07,4.22.13,6.3.05.56.09,1.68.9,1.68.75,0,1.12-1.19,1.35-1.72,1.12-2.59,1.21-5.46,1.17-8.24-.07-5.33-.69-10.66-1.26-15.95-.86-7.92-2.37-17.6-8.61-23.3-.94-.86-2.11-1.81-3.46-1.48-1.44.35-2.17,1.98-3.62.65s-2.63-3.76-5.06-3.39c-1.65.26-3.06,1.54-4.21,2.65-1.87,1.81-3.51,3.83-4.54,6.24-1.97,4.64-1.89,9.92-1.4,14.84.61,6.07,1.93,12.04,3.02,18.03,1.01,5.57,2.53,11,5.06,16.08.94,1.88,2.01,3.73,3.33,5.37.79.98,1.73,2.04,2.92,2.54,2.69,1.14,3.46-2.1,3.12-4.1-.36-2.11-1.32-4.13-2.26-6.04-1.23-2.5-2.61-4.92-3.97-7.36-2.76-4.95-5.17-10.16-8.98-14.42-1.25-1.39-2.67-2.72-4.33-3.62-.97-.52-2.01-.89-2.97-1.41-1.21-.66-2.39-1.41-3.67-1.93-2.03-.82-4.3-.67-5.79,1.11s-.28,4.27-1.52,6.12c-.58.86-1.65-.44-2.32-.78-1.25-.62-2.49-.41-3.55.49-3.1,2.61-3.13,6.5-1.93,10.05,1.59,4.71,4.52,8.94,7.36,12.97s5.67,8.36,9.07,11.99,7.14,6.57,11.08,9.38c2.48,1.77,5.14,3.27,7.64,5,2,1.38,4.7,2.08,7.2,1.78,1.72-.2,2.58-2.87,3.1-4.27.93-2.5,1.29-5.16,1.94-7.73.37-1.45.74-2.98,1.48-4.29s1.73-2.57,2.75-3.71,2.2-2.1,3.49-2.89c.83-.51,2.73-1.92,3.63-1.02,1.07,1.07.15,3.65-.11,4.89-.29,1.38-.81,2.52-1.37,3.82-.2.47-.21.87-.32,1.35-.19.84-.67,1.55-1.27,2.15l.86.67c1.55-3.07,4.02-5.69,6.9-7.56.79-.51,5.32-3.42,5.72-1.41.3,1.48-.63,3.4-1.15,4.73-.42,1.08-1.23,2.33-1.32,3.5-.02.27.27.58.55.55,2.29-.25,4.18-1.99,6.35-2.67,1.22-.38,2.51-.58,3.77-.76s3.14-.58,4.42-.16c2.66.89.14,4.18-.81,5.36-.86,1.07-2.79,2.13-3.09,3.53-.06.28.08.61.38.68,2.23.45,4.58.13,6.83.46,1.01.15,2.48.36,3.16,1.23.54.68.15,1.12-.36,1.68-2.52,2.75-6.08,4.8-9.25,6.72-.41.25-.32.87.13,1.01,1.39.43,2.76,1.1,3.95,1.94,1.73,1.24,3.45,3.79,1.51,5.67-1.5,1.46-4.1,1.61-6.06,1.66-1.27.03-2.56-.02-3.82-.19-.46-.06-.75.65-.39.94,1.35,1.07,2.67,2.18,3.97,3.32.93.81,1.85,1.64,2.71,2.53.5.52,1.09,1.07,1.32,1.76.52,1.64.12,4.01-.59,5.53-.44.95-1.08,1.55-1.82,2.25-.68.65-1.22,1.29-2.09,1.72-2.11,1.05-4.3.35-6.26-.68-1.4-.74-2.33-2.39-3.98-2.59-.24-.03-.47.19-.53.4-.29.98-.22,1.91-.28,2.92-.08,1.24-.57,2.4-1.42,3.3-1.32,1.4-3.26,2.22-5.15,2.45-3.31.41-7.49-.67-9.8-3.2-1.43-1.56-2.31-3.76-3.16-5.67-1.1-2.46-2.08-4.98-3.01-7.5-.53-1.43-1.04-2.87-1.53-4.31l-.25.62c1.09-.78,1.77.71,2.38,1.3.34.33.8.58,1.17.89,1.13.96,2.19,2.01,3.2,3.08.62.66,1.16,1.55,1.84,2.12.61.51,1.52.97,2.22,1.36.5.28,1.03.54,1.62.56,1.28.04,2.23-.89,2.77-1.97.38-.76.98-1.89.85-2.76-.25-1.66-2.12-3.36-3.23-4.52l-.67.86c2.65,1.79,8.57,3.81,9.84-.68,1.06-3.73-4.53-6.87-7.25-8.13-.63-.29-1.18.59-.56.95,1.85,1.07,4.08,1.7,6.12,2.29,1.48.43,3.38,1.18,4.76.33,1.93-1.18,3.2-3.69,1.67-5.72s-4.23-3-6.53-3.45l-.15,1.08c3.72-.07,6-2.1,7.34-5.44.61-1.53.54-2.74-.77-3.79-1.5-1.2-2.27.24-3.67.76l.54.14c-1.42-1.36-2.43-2.86-4.14-3.88s-3.73-2.08-5.7-2.07c-4.33.02-5.3,5.76-5.33,9.11,0,.71,1.09.71,1.1,0h0Z"/>
  </g>
</svg>