<?xml version="1.0" encoding="UTF-8"?>
<svg id="Layer_2" data-name="Layer 2" xmlns="http://www.w3.org/2000/svg" viewBox="0 0 189.77 185.5">
  <g id="OBJECTS">
    <path d="M108.06,103.79c.17,3.28-1.52,7.61-5.25,8-3.04.32-4.45-3.71-4.87-6.11-.09-.54-.94-.51-1.06,0-.54,2.39-2.11,7.04-5.19,6.87s-3.39-4.87-3.36-7.12c0-.63-.9-.73-1.08-.15-.33,1.08-.95,2.12-1.68,2.98-1.3,1.52-3.92,3.09-5.95,2.1-2.31-1.12-2.1-5.26-1.82-7.15.09-.61-.63-.96-1.01-.42-1.57,2.23-4.9-.61-6.02-1.94-1.25-1.48-1.57-3.43-.89-5.23.78-2.08,2.59-4.05,4.28-5.31.31-.23.39-.73,0-.95-1.39-.78-2.78-1.65-4-2.68-.72-.61-1.4-1.2-1.55-2.16-.13-.8-.32-1.66-.21-2.47.37-2.86,5.02-3.03,7.19-3.22,1.86-.17,3.75-.23,5.62-.15.45.02.64-.47.47-.83-.26-.54-.49-1.09-.71-1.64-.32-.79-.97-2.02-.85-2.9.08-.59.83-.59,1.4-.69.98-.17,1.98-.21,2.97-.22,1.61,0,10.29.61,7,3.78-2.64,2.55-6.22,3.96-8.97,6.41-.99.88-2.1,2.07-2.14,3.48-.05,1.69,1.55,2.94,2.9,3.64,3.38,1.74,6.3-.96,7.44-4.05.25-.68-.8-.93-1.06-.29-1.03,2.48-2.71,7.27-.37,9.47,1.53,1.44,4.28.93,5.76-.31,1.06-.89,1.85-2.24,2.16-3.59l-1.08-.15c-.03,1.42.03,2.85.14,4.26.15,1.92.27,4.33,1.38,5.99,2.58,3.85,6.49-3.79,7.09-5.78l-1.01.13c.78,1.76,1.92,4.34,3.73,5.24,3.21,1.59,3.2-5.1,3-6.64-.51-3.86-2.4-7.71-5-10.6-1.11-1.24-4.07-3.9-5.42-1.48-.94,1.69-1.14,6.54,1.32,7.26,1.36.39,2.25-1.16,2.7-2.17.91-2.04,1.49-4.49,1.26-6.74-.33-3.39-2.7-5.09-4.64-7.57-1.33-1.7-1.04-3.58-.73-5.63.29-1.88.88-3.63,1.45-5.43.88-2.75,1.73-5.54,1.93-8.44.21-3.12-.28-6.37-.54-9.49-.14-1.68-.26-3.36-.3-5.04-.04-1.87.18-3.72.2-5.59.02-3.19-.49-6.37-1.24-9.45-2.15-8.85-6.05-19.39-15.45-22.66-1.69-.59-2.72-.38-3.84,1.07-.55.72-1,1.51-1.5,2.27-.45.69-1.16,1.9-2.06,2.08-.63.12-1.18-.56-1.59-.97-.7-.68-1.33-1.42-2.02-2.11-1.05-1.02-1.9-1.62-3.25-.76-1.52.98-2.36,2.6-3.63,3.83-.71.69-1.53,1.13-2.54,1.12-.75,0-1.47-.28-2.22-.33-2.68-.16-3.72,2.4-4.19,4.62-2.02,9.58.83,19.61,3.67,28.71,1.31,4.18,2.86,8.24,4.35,12.35.98,2.71,1.96,5.25,3.36,7.78s2.66,4.83,5.01,6.49c1.81,1.28,4.17,2.3,6.4,1.6.32-.1.53-.5.33-.81-1.89-2.82-3.37-5.75-5.71-8.25s-4.7-4.57-7.38-6.44c-2.94-2.06-6.15-3.79-9.27-5.55s-6.28-3.45-9.54-4.94-24.34-10.55-23.29-.64c.21,1.97.77,3.91,1.3,5.82.24.87.49,1.75.72,2.62.08.31.11.73.26,1.02.41.82-.15-.24.29.08-.17-.12-1.09-.02-1.32-.04-.72-.05-1.43-.11-2.15-.13-1.44-.03-2.99.08-4.29.77-3.06,1.64-2.33,5.49-1,8.04,2.03,3.88,5.3,7.18,8.44,10.17,6.98,6.64,14.8,12.52,24,15.64,1.02.34,8.89,3.27,9.03.6.07-1.33-2.11-2.53-2.97-3.17-2.07-1.54-4.29-2.87-6.57-4.06-8.41-4.39-17.75-7.26-27.05-9.06-2.51-.49-5.13-1.04-7.7-.79-4.7.45-9.67,2.25-13.54,4.94-1.78,1.24-3.3,2.76-4.19,4.77-1.13,2.56.69,5.19,2.67,6.77,1.03.82,1.96,1.71,2.93,2.61,1.03.96,2.21,1.98,2.82,3.28s.05,2.32.03,3.61c-.01,1.09.75,1.98,1.55,2.64,1.06.88,2.37,1.36,3.58,1.99,1.35.71,2.66,1.44,4.1,1.96,2.98,1.08,6.17,1.53,9.33,1.67,3.53.16,6.9.18,10.39-.48s6.72-1.59,9.89-2.88c2.93-1.19,5.72-2.68,8.25-4.58.43-.32.3-1-.28-1.02-3.51-.17-6.92.62-10.25,1.67s-6.77,2.07-10.06,3.33-6.37,2.65-9.45,4.19-6.29,3.05-9.14,4.95c-3.4,2.26-7.57,7.05-6.61,11.51.53,2.47,2.7,3.22,4.51,4.6,2.35,1.8,2.8,4.59,1.1,7.03-1.04,1.49-1.93,2.7-.42,4.22.95.95,1.26,2.17,1.82,3.36,1.9,4.06,6.07,2.7,9.56,1.82,5.7-1.43,11.64-1.37,17.43-2.24,2.4-.36,4.84-.87,7.01-1.99.84-.44,1.59-1,2.45-1.41,1.04-.49,2.12-.89,3.2-1.3,3.59-1.34,7.47-2.35,10.69-4.5,2.93-1.95,5.89-3.83,8.68-5.97,1.47-1.13,2.94-2.31,4.19-3.69.75-.84,1.71-1.95,1.69-3.15-.04-2.37-2.71-1.98-4.12-1.27-2.78,1.4-5.16,3.77-7.35,5.91-2.94,2.87-5.71,5.92-8.41,9.02-2.18,2.51-4.32,5.06-6.36,7.69-2.22,2.85-3.59,5.98-4.5,9.5-.42,1.63-.75,3.27-1.11,4.91-.22,1.01-.69,2.09-.22,3.08.93,1.98,3.48,3.01,4.99,4.47.91.87,1.24,2.3,2.02,3.32.65.86,1.38,1.51,2.41,1.86,2.35.81,4.86-.19,6.9-1.35,5.43-3.09,9.96-7.61,14.22-12.11,4.87-5.15,8.04-11.55,10.4-18.17.54-1.53,1.06-3.06,1.75-4.53.55-1.18,1.06-2.45,2.04-3.34h-.78c.84.66.16,2.88.19,3.85.07,1.75-.15,3.55-.29,5.29-.32,3.84-.32,7.64-.47,11.48s-.44,7.66-.1,11.53.98,7.65,1.47,11.49c.4,3.19,1.35,6.27,2.69,9.19,1.11,2.43,2.52,4.99,5.1,6.1,2.33,1,3.43-.92,4.65-2.55.79-1.06,1.41-1.49,2.7-1.64,1.03-.12,2.09-.14,3.12-.03.43.04.81.16,1.23.24.46.09.07-.2.03.12-.05.44.02.93.63.82.39-.08.75-.59.99-.86,1.92-2.28,3.03-5.27,3.9-8.08s1.51-5.84,1.97-8.82c.28-1.79.49-3.57.84-5.34s.31-3.41.28-5.2.35-3.44.25-5.16c-.1-1.96-.19-3.91-.34-5.86-.29-3.6-.9-7.05-2.09-10.47-.99-2.85-2.34-5.44-4.34-7.7-.58-.66-1.36-1.5-2.32-1.42-.78.06-1.33.62-1.55,1.34-.33,1.09-.17,2.3-.09,3.41.12,1.64.72,3.15,1.22,4.69.26.79.69,1.41,1.08,2.14.5.93.93,1.89,1.41,2.83.87,1.68,1.83,3.32,2.74,4.98,1.7,3.07,3.73,5.91,6.13,8.47,2.1,2.25,4.92,4.64,8.05,5.18,3.58.62,7.23-.12,10.81-.33,2.53-.14,5.02-.37,6.57-2.65.89-1.32,1.47-2.9,1.98-4.4.54-1.61,1.09-3.2,1.67-4.8.51-1.42.9-2.93.72-4.46-.2-1.62-.85-3.49-1.6-4.95-.69-1.34-1.73-1.86-2.85-2.73-.38-.3-.72-.75-1.08-1.1-1.37-1.34-2.85-2.58-4.42-3.67-1.2-.83-2.9-2.03-4.46-1.84-1.33.16-1.93,1.6-1.46,2.77.64,1.6,2.68,2.45,4.15,3.06,1.87.78,3.82,1.31,5.76,1.87,2.96.86,6.24,1.24,9.32,1.25,1.73,0,3.42-.2,5.1-.58,1.86-.43,3.82-.59,5.72-.84s3.83-.4,5.76-.48c.78-.03,1.79-.06,2.24-.82.55-.95-.11-2.32-.33-3.26-.38-1.6-.6-3.23-1.07-4.81-.4-1.33-.87-2.63-1.73-3.74-.95-1.23-2.24-2.2-3.52-3.06-3.07-2.08-6.34-3.62-9.87-4.74-7.19-2.27-14.55-4.08-22.01-5.2-1.82-.27-3.67-.4-5.5-.59-.73-.08-1.61-.31-2.33-.17-.56.11-.99.36-1.58.39-.51.02-1.02-.05-1.53-.1-.55-.06-.74.78-.28,1.02,1.73.92,3.68.75,5.57.6,2.35-.18,4.67-.53,7-.96,2.49-.46,4.95-1.06,7.45-1.51,2.69-.48,5.41-.76,8.11-1.11,4.55-.59,9.63-1.12,13.3-4.13.78-.64,1.46-1.39,2.23-2.05.94-.81,2.09-1.33,3.09-2.06.64-.47,1.17-.89,1.87-1.24s1.39-.7,2.05-1.11c.81-.51,2.39-1.62,1.72-2.77-.35-.6-1.23-.93-1.83-1.17-1.06-.44-2.18-.73-3.19-1.28l-.13,1.01c3.76-.77,7.98-.62,11.49-2.32,1.15-.56,2.23-1.33,2.64-2.59.55-1.66-.67-3.48.07-5.02.1-.2.11-.5-.09-.67-2.58-2.13-6.22-2.73-9.41-3.34-4.59-.88-9.06-1.01-13.71-.96-8.47.1-16.86,1.34-24.5,5.21-1.89.96-3.72,2.02-5.59,3-1.69.88-3.37,1.78-4.91,2.9-2.3,1.67-5.73,4.74-5.25,7.96.2,1.33,1.39,2.66,2.54,3.31s2.63.78,3.97.7c3.58-.2,7.1-1.38,10.44-2.61,2.06-.76,4.09-1.6,6.1-2.5,2.29-1.03,4.38-2.36,6.52-3.66,4.07-2.47,8.12-4.99,12.14-7.54,2-1.27,3.99-2.55,5.98-3.83s4.13-2.34,5.75-3.91c.7-.67,1.4-1.34,2.15-1.96.89-.74,1.9-1.3,2.75-2.06,1.43-1.28,3.52-2.3,4.63-3.89.94-1.35,1.97-3.38,1.6-5.08-.29-1.32-1.38-2.4-2.4-3.2-2.46-1.92-5.5-2.88-8.37-4-3.86-1.5-7.8-3.26-12.03-2.9-3.85.32-7.31,1.58-10.96,2.7-2.27.69-5.33,1.85-6.41,4.16-.86,1.83.3,3.67,2.31,3.59,2.18-.08,4.4-1.44,6.12-2.67,1.48-1.06,3.39-2.93,3.41-4.88.02-1.81-1.54-1.56-2.75-2.17l.2.75c.2-.32.69-.31.97-.58.43-.42.7-1.17,1.09-1.64.83-1,1.89-1.82,2.73-2.84,1.47-1.76,2.9-3.76,3.25-6.08.2-1.33-.03-2.89-1.57-3.21-2.27-.48-4.05,1.68-6.23,1.82l.39.94c1.08-1.12,1.72-2.45,2.39-3.83.48-.98,1.04-1.89,1.4-2.92.55-1.59,1.22-4.25-.13-5.65-.66-.69-1.54-.67-2.38-.37-1.41.51-2.67,1.24-3.91,2.07s-2.62,1.58-3.88,2.45c-1.49,1.02-2.97,2.05-4.44,3.1-2.91,2.08-5.6,4.38-8.36,6.65-1.32,1.09-2.65,2.18-3.93,3.32-1.43,1.27-2.67,2.8-4.02,4.16-2.51,2.53-5.21,4.91-7.56,7.59-1.09,1.24-2.12,2.54-3.14,3.84s-1.84,2.76-2.88,4.02-2.09,2.28-3.04,3.52c-1.14,1.49-2.07,3.11-3.03,4.72-.91,1.52-1.81,3.05-2.72,4.57-.78,1.32-1.59,2.49-1.93,3.99-.15.65-.3,1.42.24,1.94.67.63,1.92.45,2.67.12,1.19-.51,2.17-1.43,3.32-2.03,1.29-.67,2.44-1.62,3.49-2.63,4.81-4.64,8.94-10.11,12.15-15.98.8-1.47,1.2-3.07,2.06-4.51.94-1.57,1.9-3.14,2.8-4.73,1.87-3.3,3.41-6.76,5.35-10.03s4.01-6.87,5.5-10.56c1.23-3.05,2.66-5.91,3.01-9.24.23-2.16.29-6.19-1.94-7.46-1.92-1.1-4.21.44-6.23.14l.33.81c.65-1.1,1.27-2.21,1.67-3.43.33-1.01.98-1.96,1.18-3.02.35-1.82-1.17-2.84-2.87-2.58s-3.3,1.52-4.74,2.49c-.84.56-1.75,1.2-2.75,1.44-1.58.37-.37-1.96-.37-2.8,0-1.56-1.41-2.86-2.95-2.65-1.94.26-3.97,1.6-5.37,2.9-1.65,1.53-3.25,3.57-3.51,5.88-.07.63-.21,1.67.51,1.95.66.26,1.4-.2,1.92-.56.75-.52,1.46-1.14,2.14-1.74.86-.76,1.41-2.06,1.92-3.09,1.07-2.17,2.18-5.11,1.7-7.56-.43-2.21-2.86-3.01-4.68-3.86-2.43-1.14-5.26-1.17-7.79-.34s-4.47,2.4-6.33,4.18-3.71,3.91-5.1,6.2c-3.33,5.48-6.59,11.07-9.28,16.89-3,6.47-5.04,13.29-6.05,20.35-.48,3.36-.7,6.74-.92,10.12s.27,6.97,1.54,10.26c.25.65,1.32.37,1.06-.29-1.33-3.46-1.71-6.97-1.45-10.65s.47-7.04,1.04-10.55c1.13-6.95,3.28-13.62,6.33-19.96,1.5-3.12,3.16-6.15,4.88-9.15,1.62-2.83,3.16-5.82,5.13-8.43,3.8-5.06,9.99-10.71,16.72-7.52,1.28.61,3.26,1.19,3.76,2.65.59,1.72-.31,4.24-.94,5.85-.53,1.36-1.26,3.17-2.37,4.15-.59.53-2.2,2.28-3,1.94l.38.38c-.54-3.94,3.75-7.39,6.99-8.66.91-.35,1.92-.44,2.47.57.32.59.08,1.23-.08,1.83-.27,1.01-.63,2.56.76,2.85,2.3.48,4.86-2.17,6.7-3.24.77-.45,1.88-1.06,2.8-.74,1.18.4.73,1.57.32,2.4-.82,1.64-1.34,3.35-2.3,4.96-.16.28-.03.75.33.81,1.73.26,3.31-.53,5.02-.48,2.47.08,2.5,4,2.42,5.79-.13,2.79-1.07,5.11-2.2,7.6-.63,1.38-1.06,2.86-1.7,4.25-.69,1.51-1.46,2.98-2.27,4.43-1.5,2.7-3.16,5.31-4.57,8.06-1.51,2.94-3.02,5.85-4.71,8.7-.72,1.21-1.56,2.39-2.09,3.69-.31.76-.5,1.56-.87,2.3-.4.82-.92,1.59-1.39,2.37-1.56,2.58-3.38,4.93-5.05,7.42-1.58,2.35-3.73,4.44-5.76,6.39-.99.95-2.05,1.82-3.27,2.46-1.06.55-1.96,1.37-3.02,1.89-.56.27-1.59.59-1.68-.26-.04-.37.18-.93.3-1.28.46-1.4,1.55-2.76,2.3-4.03,1.74-2.93,3.34-6.02,5.49-8.68.85-1.05,1.89-1.97,2.7-3.04s1.4-2.15,2.17-3.17c1.95-2.56,4.05-4.96,6.33-7.24s4.45-4.33,6.59-6.58,4.46-4.24,6.88-6.23c2.81-2.32,5.58-4.6,8.56-6.7,2.69-1.9,5.43-3.69,8.22-5.44.81-.51,3.41-2.13,4.1-.95.56.94.21,2.43-.04,3.41-.27,1.05-.71,1.93-1.21,2.88-.79,1.51-1.38,3.07-2.58,4.32-.31.32-.1.97.39.94,1.88-.12,3.18-1.41,4.95-1.79,2.75-.6,1.72,2.76,1.03,4.14-1.03,2.05-2.6,3.91-4.3,5.44-.69.62-1.04,1.46-1.66,2.11-.39.41-.88.44-1.22.99-.15.24-.06.62.2.75.56.28,1.25.3,1.77.57.89.47.13,1.65-.27,2.27s-.79,1.21-1.36,1.69c-1.47,1.26-3.34,2.37-5.2,2.92-.69.2-1.78.49-2.36-.11-.82-.86.05-2.13.72-2.76,1.75-1.63,4.06-2.13,6.24-2.87,3.59-1.21,7.29-2.53,11.17-2.37,3.54.14,7,1.86,10.26,3.1,2.56.98,5.27,1.88,7.49,3.56,1.35,1.02,2.49,2.32,2.03,4.12-.56,2.19-2.01,3.53-3.73,4.84-1.44,1.1-2.88,2.19-4.3,3.3s-2.69,2.52-4.24,3.53c-3.37,2.21-6.76,4.4-10.17,6.56s-6.85,4.3-10.29,6.41c-1.79,1.1-3.59,2.18-5.39,3.26s-3.72,1.84-5.63,2.62c-3.26,1.33-6.59,2.56-10.04,3.28-2.56.53-5.71,1.11-7.6-1.11-.71-.84-1.11-1.52-.82-2.64.2-.76.62-1.53,1.05-2.19.96-1.49,2.44-2.74,3.88-3.75,2.74-1.92,5.84-3.29,8.75-4.91,6.46-3.6,13.81-5.33,21.16-5.73s15.05-.25,22.27,1.87c1.51.44,3.08.99,4.31,2l-.09-.67c-.63,1.31-.22,2.46-.05,3.82.23,1.84-1.03,2.86-2.56,3.53-3.36,1.48-7.37,1.34-10.93,2.07-.47.1-.53.78-.13,1.01.59.33,1.22.57,1.86.8.73.27,1.97.47,2.51,1.06.29.32.26.22.02.6-.15.25-.52.48-.75.64-.57.4-1.2.73-1.82,1.05-.46.24-.97.44-1.41.71-.77.47-1.43,1.12-2.22,1.59-1.64,1-2.88,2.3-4.36,3.51-3.51,2.87-8.64,3.31-12.99,3.87s-8.66,1.24-12.98,2.12c-2.56.52-5.2,1.12-7.81,1.32-2.01.16-4.47.61-6.32-.38l-.28,1.02c1.16.12,2.05.03,3.16-.2,1.23-.25,2.68.12,3.93.25,2.63.27,5.23.62,7.83,1.11,5.01.94,9.93,2.18,14.82,3.6s9.89,3.23,13.98,6.56c1.9,1.55,2.82,3.33,3.47,5.66.27.98.44,1.99.63,2.99.11.56.23,1.12.38,1.68.11.44.49,1.23.38,1.7-.18.8-1.73.55-2.36.58-1.31.05-2.61.18-3.91.34-2.34.29-4.75.5-7.04,1.04-4.35,1.03-9.44.48-13.7-.74-2.62-.75-5.46-1.4-7.77-2.91-.61-.4-2.13-1.62-1.17-2.46.67-.59,2.08.26,2.69.59,2.22,1.23,4.26,2.97,6.03,4.78.93.95,2.25,1.52,3.04,2.64.72,1.02,1,2.27,1.38,3.44.44,1.37.62,2.58.3,4.02-.48,2.14-1.43,4.25-2.13,6.33s-1.51,4.83-3.64,5.81c-1.8.83-4.07.61-6.01.8-2.56.25-5.17.54-7.75.28-4.87-.49-8.72-5.13-11.44-8.81-3-4.05-5.13-8.8-7.5-13.23-1.11-2.07-1.48-4.44-1.67-6.73-.05-.6-.11-1.9.58-2.13s1.43.84,1.84,1.31c2.93,3.37,4.57,8.03,5.31,12.4.44,2.59.62,5.21.76,7.83.07,1.34.27,2.75.13,4.08-.11,1.07-.23,2.12-.24,3.19,0,1.19.16,2.38.07,3.57-.1,1.27-.47,2.47-.67,3.72-.38,2.39-.63,4.78-1.12,7.15-.65,3.17-1.5,6.36-2.86,9.32-.61,1.32-1.32,2.72-2.32,3.8-.08.08-.28.22-.32.32-.07.16-.05-.08-.01.01,0,0-.03.02-.03.02h0c-.17.1,0,.1.52.02l.27.47c0,.17-.26.47-.05.26.08-.09.15-.2.19-.31.08-.19.11-.39.06-.6-.12-.48-.62-.71-1.05-.85-1.52-.5-3.39-.39-4.95-.17-.73.1-1.38.21-1.96.67-.82.65-1.37,1.58-1.98,2.42-.85,1.17-1.55,1.71-2.97.97-1.26-.66-2.2-1.77-2.93-2.96-3.22-5.25-4.02-11.54-4.77-17.53-.41-3.27-.78-6.59-.74-9.89s.29-6.67.32-10.01c.03-3.69.38-7.36.66-11.04.11-1.4.01-2.79.17-4.17.11-.98.28-2.24-.6-2.93-.24-.19-.54-.22-.78,0-1.64,1.48-2.51,4.01-3.25,6.04-1.19,3.26-2.25,6.54-3.86,9.63-1.52,2.91-3.24,5.84-5.3,8.41s-4.71,5.05-7.19,7.36c-2.05,1.9-4.22,3.62-6.51,5.21-2.01,1.39-4.51,3.05-7.07,2.8-1.48-.15-2.42-.97-3.21-2.17-.6-.91-.84-2-1.59-2.79-.72-.75-1.6-1.35-2.43-1.97s-2.17-1.41-2.54-2.4c-.22-.61.07-1.26.2-1.88.15-.7.3-1.4.45-2.1.35-1.61.71-3.22,1.18-4.8.61-2.03,1.39-4.11,2.6-5.88,1.27-1.85,2.76-3.58,4.19-5.31,4.62-5.59,9.44-11.22,14.97-15.94,1.04-.88,2.11-1.74,3.28-2.44.62-.37,1.57-.97,2.34-.83,2.46.45-1.66,4.26-2.22,4.75-2.75,2.45-5.85,4.51-8.93,6.53-.9.59-1.81,1.19-2.71,1.78-1.44.96-3.12,1.53-4.73,2.12-2.16.8-4.35,1.55-6.5,2.39-1.69.67-3.14,1.61-4.76,2.4-4.61,2.25-10.31,2.19-15.31,2.68-2.66.26-5.34.56-7.95,1.15-2.15.49-4.65,1.7-6.89.99-2.41-.77-2.49-4.08-4.1-5.72-.84-.86-.49-1.38.14-2.27.55-.77,1.12-1.54,1.42-2.45.64-1.93.11-4.15-1.24-5.63-1.55-1.7-4.41-2.3-5.14-4.65s.61-4.75,1.87-6.54c1.53-2.18,3.5-3.78,5.81-5.07,2.85-1.59,5.72-3.14,8.66-4.57,5.89-2.87,12.02-4.95,18.27-6.89,3.18-.99,6.41-1.72,9.76-1.56l-.28-1.02c-5.1,3.82-11.23,6.02-17.43,7.26-3.27.66-6.38.66-9.69.56s-6.45-.49-9.5-1.53c-1.39-.47-2.65-1.13-3.93-1.83-1.17-.64-2.47-1.09-3.54-1.89-.52-.39-1.17-.96-1.32-1.63-.12-.54.13-1.13.21-1.67.16-.99.03-1.91-.42-2.81-.52-1.05-1.36-1.94-2.19-2.75-.94-.92-1.88-1.93-2.88-2.78s-1.95-1.49-2.7-2.62c-.45-.68-.93-1.46-.91-2.3s.52-1.69.96-2.4c2.37-3.79,7.52-5.78,11.61-6.96,2.82-.81,5.54-1.16,8.44-.75,7.83,1.11,15.64,3.36,22.98,6.26,4.42,1.74,8.76,3.82,12.67,6.53.93.64,1.85,1.31,2.7,2.06.25.22.46.46.7.68.27.25.06.27.2.15-.3.26-1.21.08-1.57.04-.99-.11-1.97-.34-2.93-.59-8.97-2.32-16.48-7.34-23.4-13.33-3.38-2.92-6.67-6.05-9.39-9.61-1.64-2.14-4.49-6.01-2.72-8.83,1.49-2.37,5.3-1.59,7.61-1.48.65.03,1.52.08,1.63-.74.15-1.06-.6-2.61-.88-3.6-.53-1.91-1.1-3.84-1.4-5.8-.27-1.7.09-3.1,1.91-3.69,1.9-.61,4.12-.21,6.03.19,2.19.46,4.38,1.09,6.51,1.78,6.28,2.04,12.16,5.15,17.87,8.43,2.83,1.63,5.74,3.2,8.39,5.1s4.96,4,7.11,6.34,3.5,5.1,5.24,7.71l.33-.81c-2.36.74-5.01-.83-6.68-2.42-2.01-1.91-3.29-4.65-4.53-7.1-1.09-2.16-1.78-4.44-2.64-6.68-.65-1.69-1.27-3.39-1.87-5.1-2.87-8.16-5.75-16.84-6.28-25.53-.13-2.18-.02-4.38.23-6.55.18-1.56.4-3.36,1.21-4.75,1.36-2.33,3.84-.47,5.91-1.15,1.43-.47,2.36-1.69,3.26-2.82.47-.59.96-1.2,1.54-1.69.69-.58,1.11-.9,1.84-.32,1.7,1.35,3.63,5.23,6.16,3.41,1.22-.88,1.94-2.33,2.74-3.56.36-.55.84-1.4,1.51-1.65.83-.32,2.24.47,2.98.81,3.96,1.81,6.84,5.2,8.87,8.97,2.16,3.99,3.56,8.44,4.59,12.84.7,2.99,1.19,6.09,1.09,9.18s-.21,6.11.03,9.21c.23,2.9.57,5.82.64,8.72s-.55,5.57-1.39,8.23c-1.08,3.44-2.63,7.18-2.27,10.86.24,2.45,2.42,3.93,3.86,5.69,2.5,3.05,2.25,7.62.28,10.93-.21.36-.58,1.01-1.08.91-.46-.09-.73-.93-.84-1.29-.39-1.21-.53-3.22.18-4.35,1.2-1.91,4.64,2.82,5.18,3.62,2.03,3.02,3.57,6.78,3.3,10.48-.06.76-.32,3.74-1.62,3.02-.97-.53-1.63-1.86-2.16-2.78-.36-.64-.7-1.29-1-1.96-.2-.46-.88-.28-1.01.13-.47,1.56-1.22,3.15-2.25,4.41-.45.54-1.52,1.75-2.35,1.53-.56-.14-.83-1.06-.98-1.52-.88-2.69-.91-5.78-.86-8.59.01-.61-.94-.76-1.08-.15-.23,1-.76,1.99-1.47,2.73-1.2,1.24-4.16,2.01-5.07.05-1.04-2.24.22-5.62,1.11-7.76l-1.06-.29c-.39,1.05-1.06,2.11-1.88,2.86-1.81,1.66-4.52.9-5.91-1.01-1.99-2.72,4.21-5.96,5.88-7.03,1.5-.97,3.08-1.9,4.39-3.12.84-.78,1.6-1.79,1.09-2.97-.67-1.53-2.69-2.09-4.17-2.39-2.13-.43-4.37-.52-6.54-.32-1.29.12-3.55.17-3.51,1.92s.99,3.56,1.72,5.09l.47-.83c-2.4-.1-4.84.01-7.23.33s-6.1.83-6.64,3.79c-.32,1.77.1,3.9,1.38,5.17,1.39,1.39,3.16,2.49,4.88,3.44v-.95c-2.47,1.85-5.11,4.79-5.2,8.04-.07,2.42,1.46,4.41,3.31,5.8s4.47,2.36,6.03.14l-1.01-.42c-.4,2.72-.44,7.32,2.64,8.53,3.89,1.53,7.88-2.45,8.93-5.88l-1.08-.15c-.04,2.84.64,7.85,4.23,8.2,3.82.37,5.8-4.66,6.48-7.66h-1.06c.52,2.99,2.39,7.32,6.07,6.91,4.27-.48,6.41-5.23,6.21-9.09-.04-.7-1.14-.71-1.1,0h0Z"/>
  </g>
</svg>