<?xml version="1.0" encoding="UTF-8"?>
<svg id="Layer_2" data-name="Layer 2" xmlns="http://www.w3.org/2000/svg" viewBox="0 0 211.1 202.5">
  <g id="OBJECTS">
    <path d="M101.5,84.44c-.55-.21-1.07-1.36-1.36-1.95-.7-1.46-1.21-3.02-1.68-4.56-1.42-4.62-2.41-9.37-3.27-14.13-2-11.15-3.4-22.78-2.57-34.12.42-5.78,1.56-12.1,4.49-17.17,1.14-1.97,3.93-5.39,6.28-2.89,1.51,1.61,1.68,4.27,2.03,6.35.59,3.46,1.1,6.93,1.6,10.4,1.42,9.79,2.71,19.61,3.85,29.44.91,7.83,1.99,15.76,2.11,23.65.01.86-.15,1.86-.11,2.65,0,.04-.11.32-.09.36,0-.01.66-.01.67-.03,0-.02-.08-.14-.08-.15.05-.2-.23-.72-.28-.93-.25-.99-.43-1.99-.61-2.99-1.06-5.95-1.98-11.95-2.63-17.94-.44-4.1-.86-8.19-1.32-12.29s-.86-8.59-.94-12.9c-.04-2.11,0-4.22.12-6.32.14-2.21.57-4.38.77-6.57s.18-4.22.73-6.26c.47-1.78.98-3.53,1.43-5.31.47-1.89,1.02-3.76,1.83-5.53.45-.98,2.34-5.53,3.73-3.42,1.01,1.54,1.13,5.91,3.92,4.69.53-.23,1.02-.75,1.63-.78,1.23-.05,1.34,1.19,1.67,2.07.51,1.36,1.25,2.21,2.45,3.02,3.47,2.35,3.2,8.19,3.37,11.86.21,4.42.13,8.86-.08,13.28-.1,2.16-.23,4.32-.37,6.48s-.08,4.3-.33,6.44-.79,4.11-1.21,6.16-.76,4.2-1.16,6.3-.63,4.2-1.33,6.14-1.26,3.9-1.97,5.82c-.39,1.06-.87,2.07-1.32,3.1-.38.86-.55,1.8-.89,2.68-.36.93-.83,1.7-1.41,2.49-.51.69-1.07,1.76-2.02,1.86l.47.27c-.76-1.28-.61-2.83-.56-4.27.07-1.73.58-3.54,1.01-5.21.83-3.24,2.14-6.14,3.72-9.08,1.46-2.73,3.08-5.37,4.85-7.92s3.86-4.8,5.86-7.14c6.91-8.1,13.84-16.04,22.86-21.88,3.83-2.48,8.09-4.29,12.25-6.14,1.96-.87,3.93-1.75,6.03-2.22,1.74-.38,3.52-.51,5.29-.56.79-.02,1.59-.06,2.37-.03.72.03.86.31.88,1,.05,1.89-1.09,4.27-.29,6.1.56,1.28,1.73.65,2.76.52.9-.11,1.36.68,1.28,1.53-.08.77-.67,1.5-1.15,2.06-1.32,1.53-2.98,2.77-4.57,4.01-1.74,1.36-3.38,2.68-4.76,4.41-2.22,2.78-4.56,5.52-7.04,8.06s-5.22,4.83-8.1,6.72c-2.2,1.44-3.55,4.54-6.62,4.17l.53.4c-.1-.46.4-1.21.61-1.59.51-.94,1.12-1.82,1.74-2.69,1.6-2.22,3.4-4.32,5.33-6.28,1.63-1.65,3.44-3.49,5.58-4.46,2.34-1.05,4.97-1.9,7.5-2.34,1.52-.27,2.6.17,4.11.39,1.18.17,2.4.23,3.54.59,1.02.32,1.89.48,2.97.48l-.55-.55c.04,4.18-4.21,6.97-6.81,9.68-3.65,3.79-7.35,7.46-11.3,10.94s-8.1,6.85-12.19,10.23c-1.03.85-2.09,1.66-3.11,2.51s-1.95,1.86-2.97,2.73c-1.86,1.58-3.88,2.93-5.76,4.48-.99.81-2.17,1.41-3.24,2.12s-2.15,1.45-3.29,2.07-2.37,1.05-3.51,1.7-2.43,1.2-3.74,1.27l.55.55c.02-.94.66-1.39,1.19-2.08s.94-1.41,1.5-2.07c1.12-1.32,2.12-2.68,3.21-4.03,2.15-2.69,4.7-5.04,7.28-7.31,2.77-2.44,5.55-4.68,8.65-6.69,2.9-1.87,5.86-3.65,8.64-5.68,1.45-1.05,2.82-2.14,4.37-3.04,1.45-.84,2.95-1.62,4.37-2.49,1.32-.81,2.5-1.84,3.86-2.59,1.49-.83,2.84-1.87,4.33-2.68.73-.4,1.5-.64,2.23-1.04.61-.34,1.2-.7,1.82-1.02,1.23-.64,2.53-.92,3.66-1.75,1.51-1.11,2.75-2.5,4.56-3.14,1.45-.51,3.01-.59,4.53-.53.6.02,2.32-.04,2.58.71.14.41-.29,1.13-.42,1.5-.32.91-.22,1.96-.59,2.83-.5,1.16-.75,1.56-.14,2.75.43.84.35,1.35-.05,2.22s-.93,1.57-1.5,2.27c-.96,1.17-2.05,2.23-3.08,3.34-.72.77-1.86,1.81-1.56,3,.27,1.09,1.34,1.25,2.07,1.88.88.76-.23,2.6-.55,3.54-.38,1.12-.76,2.25-1.12,3.38-.22.68-.31,1.75-.81,2.17-.22.18-.54.21-.78.36-.66.41-1.24,1.06-1.85,1.55-1.37,1.1-2.82,1.82-4.31,2.71s-2.82,2.07-4.31,2.98-3.19,1.78-4.88,2.49c-6.63,2.78-13.37,5.67-20.58,6.47-2.48.27-4.96.62-7.4,1.1-1.41.28-2.81.65-4.16,1.17-1.8.69-3.93,2.4-5.9,1.51l.2.75c1.38-1.81,3.25-2.89,5.3-3.78,1.21-.52,2.41-.93,3.73-1.07,1.1-.12,2.22-.01,3.31-.16,4.89-.67,9.72-1.75,14.59-2.53,2.68-.43,5.35-1.04,8.04-1.36s5.15-.54,7.73-.71c5.24-.34,10.61-.34,15.84.13,2.17.2,4.34.5,6.51.71,1.98.19,3.79.78,5.67,1.42.85.29,1.7.63,2.44,1.14.83.57,2.11,1.87,2.1,2.92-.02,1.25-1.3,1.98-2.22,2.56s-1.88,1.07-2.87,1.48c-.93.39-1.9.67-2.82,1.07-1.17.51-2.32,1.14-3.54,1.51-2.5.74-5.07,1.29-7.6,1.89-4.84,1.16-9.57,2.65-14.48,3.51-2.54.44-5.09.8-7.64,1.13-1.58.2-3.18.49-4.78.53-1.8.05-3.6.13-5.4.18-5.04.13-10.29.35-15.28-.53-.72-.13-3.32-.44-3.3-1.52.01-.76,1.21-1.26,1.77-1.46,1.19-.43,2.5-.55,3.76-.61,5.46-.26,10.95.72,16.35,1.42,2.48.32,4.97.69,7.36,1.46s4.7,1.87,7.11,2.65c1.78.57,3.67.94,5.35,1.79,1.22.61,2.41,1.29,3.58,1.98,5.07,2.99,12.03,6.67,12.05,13.46.01,3.56-3.78,3.43-6.4,3.38-3.14-.06-6.27-.37-9.38-.7-1.14-.12-2.28-.25-3.42-.37-1.25-.12-2.29.17-3.54.42-4.34.88-8.93.59-13.3.1s-8.94-1.31-13.36-2.23c-4.88-1.02-9.52-3.07-13.84-5.53-1.76-1-3.52-2.07-5.21-3.14-.2-.13-.85-.65-.8-.94.08-.44.8-.34,1.13-.34.81,0,1.62.11,2.43.16,2.33.17,4.51.42,6.77,1.06,1.85.52,3.71,1.06,5.55,1.61,2.87.86,5.56,2.33,8.12,3.84,3.07,1.82,6.02,3.84,8.89,5.96,5.27,3.89,10.42,8.1,14.95,12.84,1.32,1.38,2.63,2.9,3.62,4.53.44.73,1.27,1.85,1.18,2.75-.08.83-1.1,1.31-1.75,1.65-1.68.88-3.64,1.41-5.49,1.83-1.08.25-2.2.32-3.29.5-1.25.21-2.52.27-3.78.25-6.15-.1-11.63-2.5-17.18-4.85-5.17-2.19-10.45-4.35-15.37-7.05-1.69-.93-2.97-2.47-4.3-3.85-2.09-2.17-4.15-4.39-6.26-6.54-.67-.68-1.34-1.39-2.08-2.01-1.43-1.19-3.22-1.84-4.36-3.38l-.33.81c5.02-1.12,9.57,2.98,12.96,6.18,2.87,2.71,5.56,5.61,8.33,8.42,3.1,3.15,6.34,6.17,9.54,9.21,3.77,3.58,7.75,7.14,10.82,11.36,1.28,1.75,2.39,3.65,3.09,5.72.4,1.17.74,2.38.88,3.61.07.66.09,1.33.13,1.99.04.71.33,1.34.45,2.04.38,2.22-.12,4.96-.95,7.04-.47,1.18-1.25,2.19-2.61,2.21-1.22.02-2.38-.57-3.46-1.06-3.06-1.39-5.43-3.3-7.91-5.54-2.3-2.08-4.55-4.27-6.54-6.67-1.65-1.99-3.17-4.11-4.76-6.15-2.81-3.6-5.98-7.09-8.17-11.12-2.84-5.22-5.69-10.43-8.47-15.69-1.15-2.17-2.33-4.34-3.37-6.57-.1-.21-.17-.53-.31-.7-.04-.05-.02-.18-.07-.21.23.17-.87.31-.76.57s.49.52.67.72c.4.44.79.88,1.18,1.33,4.52,5.14,9.06,10.36,13.11,15.88.48.66,1.04,1.34,1.33,2.11.69,1.85,1.03,3.92,1.5,5.83s.93,3.81,1.34,5.72c.35,1.62.48,3.26.75,4.9.61,3.67.45,7.59.46,11.3s.13,7.92-1.79,11.4c-.35.64-.77,1.21-1.21,1.79-.34.45-.52.92-.81,1.41-.56.95-1.82,2-2.78,2.55l.75.2c-.62-1.2-1.27-2.38-1.97-3.54-.57-.95-1.21-2.28-2.19-2.88-.16-.1-.4-.11-.56,0-1.16.8-1.34,2.45-1.76,3.69-.33.97-.75,1.38-1.61,1.88s-1.45,1.16-2.16,1.9c-.57.6-1.41,1.55-2.32,1.54-1.22-.01-1.95-1.97-2.35-2.91-.87-2.07-1.5-4.3-2.2-6.43-1.58-4.8-3.68-9.62-4.5-14.62-.44-2.68-.93-5.37-1.06-8.09-.12-2.53-.21-5.05-.63-7.54-.23-1.38-.53-2.68-.43-4.09.09-1.22.28-2.4.24-3.63-.09-2.7-.4-5.57.56-8.16l-.92.24c2.91,3.31,3.86,7.78,4.27,12.04.45,4.61.62,9.33.28,13.95-.18,2.51-.36,4.96-.73,7.47s-.53,4.84-.81,7.26c-.58,4.98-1.48,9.91-3.52,14.52-.41.94-.99,1.8-1.72,2.52-.61.61-1.73,1.64-2.65,1.76-.85.11-1.72-.7-2.33-1.2-1.87-1.54-3.62-3.58-5.97-4.38-.99-.34-2.05-.34-3,.13-1.36.68-2.36,2.92-3.96,2.95-1.21.02-1.49-2.1-1.67-2.96-.23-1.12-.49-2.22-.71-3.34-.57-2.93-1.18-6.13-.93-9.12.41-4.89-.09-9.76.26-14.65.38-5.36.55-10.78,1.4-16.1.75-4.71,2.16-9.28,3.33-13.89.27-1.07,1.02-1.97,2.28-1.83.09.01,1,.54.86.35-.04-.05-.01.02.02.11.11.35,0,1.08-.04,1.51-.18,2.09-.6,4.16-1.01,6.21-1.27,6.29-2.91,12.52-4.83,18.65s-3.97,11.96-7.07,17.43c-1.29,2.27-2.55,4.56-3.88,6.81-1.08,1.82-2.12,3.72-3.46,5.36-2.27,2.78-5.04,5.31-7.91,7.46-1.57,1.18-3.21.27-4.63-.8s-2.92-2.5-3.47-4.22c-.91-2.9-.57-6.29-.29-9.26.2-2.08.36-4.29,1-6.3.71-2.24,1.61-4.43,2.51-6.6,2.41-5.83,5.04-11.57,7.67-17.3,1.05-2.28,2.11-4.56,3.17-6.84.5-1.07.9-2.32,1.62-3.27,3.04-3.99,6.62-7.57,9.79-11.46,1.2-1.48,2.03-2.9,3.17-4.23.28-.32.6-.82.95-.21.15.26.06.87.05,1.16-.03,1.36-.29,2.41-.96,3.62-.62,1.12-1.55,1.97-2.26,3.01-.17.25-.22.55-.38.74-.49.56-1.35.99-1.94,1.42-1.38,1-2.77,1.99-4.16,2.97-4.29,3.03-8.63,5.99-13.03,8.86-5.18,3.38-10.44,6.65-15.85,9.64-4.54,2.51-9.24,4.99-14.22,6.51-2.42.74-4.8.97-7.34.95-2.38-.02-5.83-.08-7.63-1.95-.76-.78-.96-1.91-.46-2.89.24-.47.73-.81.63-1.39-.13-.78-1.09-1.06-1.7-1.36-.35-.17-.72-.24-.58-.57.09-.22.61-.49.77-.66.24-.24.42-.51.56-.81.52-1.21-.07-2.45-.11-3.68-.04-1.53,1.2-1.94,2.29-2.65.71-.46,1.38-.99,2.04-1.52,5.02-4.01,9.74-8.37,14.77-12.36,5.94-4.71,12.28-9.41,19.44-12.09,4.22-1.58,8.67-2.66,13.14-3.16,1.67-.19,3.36-.3,5.05-.26.82.02,2.35-.07,3.04.48.23.18.15,0,.1.14-.11.33-.89.63-1.17.77-1.02.51-2.12.88-3.22,1.17-1.9.5-3.85.78-5.8,1-5.58.65-11.21.85-16.83.92-6.41.08-12.83-.04-19.23-.37-5.28-.27-10.6-.63-15.82-1.48-1.62-.26-3.27-.55-4.82-1.08-2.66-.91-5.2-3.21-6.51-5.66-.66-1.24-1.1-2.79-.61-4.16s1.87-1.83,2.32-3.15c.42-1.24,0-2.46-.19-3.7-.13-.84-.03-1.26.77-1.63.61-.28,1.18-.46,1.6-1.03.64-.86.28-2.39,1.25-2.95.6-.34,1.52-.35,2.21-.45,1.86-.28,3.73-.57,5.59-.84,6.32-.93,12.65-1.76,19-2.39s12.88-1.18,19.31-.81c3.02.17,6,.7,8.88,1.64,2.17.71,4.77,1.66,6.38,3.38,1.34,1.43-.41,1.81-1.73,1.92-3.47.28-7.25-.34-10.57-1.33-6.76-2.01-12.75-6.34-18.05-10.87s-10.46-9.93-15.2-15.35c-1.85-2.12-3.67-4.28-5.48-6.44s-3.78-4.13-5.1-6.52c-1.08-1.95-1.68-4.48.38-6,1.89-1.4,4.8-1.68,7.07-1.96.55-.07.73-.69.28-1.02-1.05-.78-4.31-3.38-2.82-4.78,1.11-1.05,3.38-.54,4.68-.22.85.21,1.69.47,2.49.81.48.2.82-.43.62-.81-.54-1.05-.98-2.32-.95-3.5.02-.71.37-1.69.93-1.85,0,0,.21,0,.39.04,1.63.38,3.2,1.43,4.62,2.28,5.54,3.3,10.78,7.13,15.92,11,5.67,4.28,11.26,8.71,16.49,13.53,1.82,1.67,3.62,3.39,5.19,5.3,2.97,3.59,6.3,7.03,8.95,10.86.62.9,1.45,2.07,1.37,3.23-.03.47-.32.72-.46,1.12-.1.28-.05-.02.11.06-.52-.28-1.25-.92-1.81-1.53-2.77-2.99-5.09-6.43-7.41-9.78-6.86-9.91-13.24-20.19-19.22-30.65-2.42-4.23-4.82-8.51-6.87-12.94-.62-1.33-1.24-2.69-1.64-4.1-.12-.42-.18-.75-.21-1.12,0-.11.03-.19,0-.13.05-.09-.02.03-.07.05.62-.31,1.22-.62,1.86-.89,1.14-.47,2.45-.94,3.69-.96.29,0,.56-.25.55-.55-.05-1.53.22-4.25,2.05-4.64.91-.19,1.42.39,2.1,1.06,2.48,2.43,4.6,5.29,6.69,8.06,6.74,8.92,13,18.26,18.83,27.8,2.73,4.46,5.38,8.98,7.72,13.66,1.47,2.94,3.13,6.12,3.56,9.43.02.19,0,1.11.03,1.13-.07-.07.38-.23.36-.19,0-.02-.04,0-.16-.15-.81-.96-1.44-2.03-2.06-3.12-2.39-4.26-4.39-8.75-6.32-13.24-2.48-5.75-4.76-11.59-6.76-17.52s-3.37-11.77-4.51-17.87c-.69-3.7-1.39-7.4-1.85-11.14-.27-2.25-.54-4.62-.19-6.88.24-1.53.86-2.9,2.17-3.79s2.33-.46,3.75-.21c.91.16,1.57-.23,2.01-1.03.47-.87.59-2.65,1.79-2.74.74-.05,2.06-.08,2.64.22,1.29.67,2.19,2.78,2.84,3.97,2.9,5.28,5.11,10.97,7.17,16.62,3.32,9.1,5.45,18.57,8.09,27.88,1.58,5.56,3.16,11.12,4.62,16.72,1.15,4.39,2.36,8.83,2.96,13.33.15,1.11.15,2.1.03,3.19,0,.02.13,0,.19.05-.47-.44-1.04-.81-1.56-1.2-1.36-1-8.55-6.34-8.92-1.96-.14,1.65.11,3.4.18,5.06l.7-.53c-1.93-.64-4.68-1.02-6.37.35-2.44,1.98-1.38,6.28.19,8.49l.62-.81c-2.01-.68-6.66-1.94-7.73.78-.73,1.85.65,4.09,1.68,5.53.92,1.29,1.98,2.5,3.15,3.57l.11-.86c-2.96,1.34-5.95,4.96-2.51,7.67,2.26,1.78,5.29.66,7.74-.11,1.07-.34,3.11-.83,3.6-1.99.57-1.35-1.47-2.02-2.46-2.05-3.37-.1-5.06,4.61-3.38,7.16,1.36,2.07,4.53,2.09,6.68,1.53,1.47-.38,3.05-1.21,4.02-2.43l-.92-.54c-1.03,2.57-1.01,6.44,2.77,5.91s5.39-4.24,5.02-7.68l-.94.39c2.54,2.49,6.5,2.8,9.34.65,2.38-1.8,2.89-4.98,1.23-7.47l-.33.81c2.59-.59,5.29-2.14,6.75-4.39,1.27-1.96,1.35-4.38.68-6.57-.44-1.44-1.5-2.85-3.11-1.91-1.13.66-1.97,1.97-2.58,3.1l1.01.42c.92-2.52,1.91-5.29,2.04-7.99.04-.93-.13-2.27-1.34-2.22-.75.03-1.44.64-1.97,1.09-1.08.92-1.94,2.08-2.53,3.37-.7,1.55-1.12,3.43-.91,5.15l1.08-.15c-.8-3.54-1.74-7.26-3.39-10.51-.52-1.01-1.56-2.89-2.99-2.26-1.94.85-1.57,3.97-1.26,5.59.4,2.13,1.15,4.24,2.06,6.21l.95-.56c-1.72-2.33-5.94-7.27-9.18-4.82-1.9,1.44-2.37,4.29-.8,6.11,1.01,1.17,2.57,1.96,4.04,2.37.58.16,1.01-.75.42-1.01-2.51-1.09-6-2.43-8.73-1.61-1.61.49-2.32,2.07-1.94,3.67.41,1.76,2.09,2.45,3.73,2.61,1.4.13,2.87-.02,4.23-.36l-.54-.92c-1.17,1.02-3.29,3.29-1.89,4.87,1.06,1.21,3.42,1.15,4.86.95,1.13-.16,2.35-.54,3.3-1.2.58-.4.03-1.35-.56-.95-.54.37-1.17.63-1.8.82-1.27.38-3.76.73-4.86-.24s1-2.84,1.72-3.47c.43-.38-.03-1.04-.54-.92-1.17.29-2.42.42-3.63.35-.86-.06-1.88-.22-2.5-.88s-.77-1.95-.21-2.69c1.07-1.4,3.91-.62,5.28-.26,1.13.29,2.62.8,3.5,1.18l.42-1.01c-1.09-.3-2.2-.83-3.05-1.58-1.57-1.37-1.55-4.27.58-5.21,1.66-.73,3.64,1.03,4.74,2.06.88.82,1.71,1.72,2.42,2.69.42.57,1.25.09.95-.56-.6-1.29-1.09-2.65-1.48-4.02-.32-1.11-.6-2.26-.65-3.42-.03-.7-.07-2.33.73-2.72,1.6-.8,3.77,7.35,4.06,8.4.33,1.19.65,2.39.92,3.59.13.59,1.15.48,1.08-.15-.2-1.68.21-3.51.96-5.01.63-1.25,1.69-2.67,2.97-3.33.54-.28.58-.18.63.42.14,1.65-.51,3.48-.96,5.04-.32,1.07-.66,2.14-1.04,3.19-.21.59.71.97,1.01.42.51-.94,1.22-2.18,2.19-2.7,2.04-1.11,1.91,4.65,1.55,5.7-.96,2.75-3.99,4.53-6.72,5.16-.33.08-.52.52-.33.81,1.42,2.13.95,4.73-1.17,6.21-2.4,1.66-5.61,1.32-7.68-.71-.31-.31-.99-.11-.94.39.28,2.59-.65,5.66-3.4,6.45-1.75.5-2.94-.07-2.82-1.95.05-.83.28-1.68.59-2.45.2-.5-.58-.96-.92-.54-1.67,2.1-5.07,2.93-7.56,2.12-2.71-.88-2.39-5.18,0-6.3.56-.26,1.15-.26,1.73-.07.13.04.73.23.76.39-.01-.06-.13.09-.23.2-.71.74-2.24,1.03-3.19,1.31-1.61.47-3.38,1.19-5.06.72-2.2-.61-2.96-2.93-1.43-4.59.72-.78,1.68-1.41,2.65-1.84.32-.14.35-.64.11-.86-.82-.75-1.57-1.57-2.27-2.43-1.04-1.27-2.78-3.44-2.39-5.24.49-2.24,5.06-.86,6.49-.38.44.15.9-.42.62-.81-1.29-1.82-2.58-5.99-.05-7.34,1.44-.77,3.51-.38,4.99.11.33.11.71-.19.7-.53-.01-.32-.02-.63-.04-.95l-.08-2.07c-.02-.6-.33-1.82.02-2.37.82-1.25,4.57,1.45,5.34,1.95.87.58,1.72,1.18,2.55,1.82.31.23.66.62,1.04.72.97.25,1.32-.82,1.39-1.56.13-1.44-.16-2.94-.4-4.35-.38-2.26-.89-4.49-1.43-6.72-1.39-5.8-3-11.55-4.62-17.29-1.46-5.18-2.98-10.35-4.36-15.56-1.24-4.65-2.37-9.29-3.94-13.85-2.11-6.13-4.46-12.25-7.36-18.05-.94-1.89-1.93-3.89-3.33-5.5-.36-.41-.8-.87-1.34-1.04-.83-.25-2.21-.27-3.09-.17-.98.12-1.43.85-1.81,1.7-.25.56-.42,1.71-.98,2.02-.4.22-.95-.07-1.36-.18-2.15-.56-4.26.48-5.42,2.34-.9,1.46-1.09,3.26-1.12,4.94-.04,2.79.38,5.58.81,8.33,1.11,7.13,2.34,14.32,4.43,21.24,1.88,6.22,4.17,12.31,6.63,18.32,2.13,5.19,4.38,10.35,6.97,15.34.79,1.51,1.59,3.06,2.58,4.45.37.52,1.04,1.59,1.84,1.33.93-.3.57-1.85.47-2.53-.24-1.52-.76-2.99-1.33-4.41-1.77-4.4-4.09-8.58-6.45-12.69-5.99-10.42-12.66-20.48-19.73-30.2-2.57-3.53-5.18-7.07-8.08-10.35-1.52-1.72-3.84-4.54-6.16-2-1.11,1.22-1.39,3.19-1.34,4.79l.55-.55c-1.36.02-2.75.5-3.99,1-.83.33-2.25.62-2.55,1.6-.27.89.25,2.09.55,2.91,1.53,4.19,3.77,8.16,5.92,12.05,6.29,11.4,13.18,22.53,20.51,33.29,2.59,3.8,5.2,7.67,8.25,11.12.66.75,1.44,1.74,2.39,2.14,1.38.58,2.09-1.31,2.05-2.41-.05-1.24-.77-2.41-1.45-3.41-1.15-1.69-2.51-3.24-3.83-4.79-2.6-3.05-5.03-6.27-7.86-9.12-5.09-5.11-10.79-9.65-16.49-14.05s-11.64-8.8-17.83-12.62c-1.72-1.06-3.51-2.22-5.44-2.86-2.3-.77-3.37,1.55-3.08,3.61.15,1.1.53,2.19,1.03,3.18l.62-.81c-2.21-.92-6.91-2.43-8.61.11-1.47,2.21,1.87,4.95,3.41,6.09l.28-1.02c-4.22.52-11.09,1.73-9.29,7.6.92,3,3.27,5.31,5.24,7.66,1.87,2.23,3.73,4.47,5.64,6.67,5.04,5.82,10.34,11.45,16.22,16.44,5.58,4.74,11.92,9.28,19.1,11.17,1.37.36,14.94,3.17,13.31-1.5-.62-1.78-3.02-2.91-4.58-3.63-3.02-1.4-6.31-2.23-9.61-2.64-6.6-.82-13.42-.21-20.01.39s-13.78,1.52-20.64,2.52c-2.07.3-4.14.62-6.22.93-.8.12-1.7.16-2.42.55-1.22.68-.94,1.79-1.39,2.89-.54,1.31-2.43.95-2.78,2.53-.29,1.32.52,2.63.37,3.95-.17,1.51-1.9,2.21-2.42,3.64-.46,1.28-.3,2.71.16,3.96,1.11,3,3.95,5.68,6.83,6.98,1.47.67,3.12.97,4.69,1.25,5.5.99,11.12,1.36,16.68,1.66,6.92.37,13.86.49,20.8.37,5.86-.1,11.75-.32,17.56-1.14,1.42-.2,11.44-2.03,9.17-4.58-.54-.6-1.57-.72-2.31-.82-1.56-.2-3.16-.16-4.73-.05-4.54.31-9.06,1.24-13.38,2.65-14.58,4.77-25.3,16.45-37.06,25.69-1.65,1.3-4.36,2.15-4.36,4.59,0,.62.16,1.23.25,1.84.17,1.1-.02,1.65-.85,2.39-.69.62-1.06,1.4-.26,2.11.33.29.75.45,1.14.63.18.09.41.15.56.28.26.21.17.08.15.2-.07.4-.59.91-.71,1.36-.37,1.35.1,2.72,1.13,3.65,1.94,1.74,5.01,1.99,7.48,2.07,2.83.09,5.57-.13,8.28-.94,5.36-1.61,10.43-4.32,15.29-7.04,10.49-5.87,20.49-12.61,30.27-19.59,1.14-.82,2.28-1.64,3.41-2.46.2-.15.44-.28.62-.46.28-.27.41-.59.62-.93.77-1.22,1.81-2.12,2.5-3.4.82-1.54,1.38-3.65.9-5.41-.31-1.15-1.47-1.55-2.35-.75-1.5,1.37-2.44,3.29-3.74,4.87-1.96,2.39-4,4.7-6.02,7.03-1.34,1.54-3.02,3.09-4.07,4.85-.79,1.33-1.34,2.88-1.99,4.29-1.27,2.74-2.54,5.49-3.8,8.24-2.72,5.96-5.45,11.93-7.82,18.04-.74,1.92-1.41,3.79-1.73,5.82-.48,3.15-.83,6.37-.73,9.56.04,1.43.15,2.94.62,4.3.56,1.63,1.87,2.99,3.16,4.08s2.86,2.2,4.56,2.17c1.37-.02,2.48-1.18,3.47-2,2.87-2.37,5.81-5,7.84-8.15,2.64-4.1,5.14-8.37,7.37-12.71,3.18-6.18,5.32-12.94,7.24-19.6,1.77-6.13,3.38-12.38,4.37-18.69.2-1.28.69-3.07.31-4.37-.27-.92-1.39-1.26-2.27-1.2-1.9.14-2.64,1.25-3.08,2.92-1.31,5.05-2.8,10.05-3.51,15.24-.36,2.63-.58,5.28-.71,7.93-.14,2.94-.48,5.86-.6,8.79s.13,5.7.11,8.56c-.01,1.88-.34,3.75-.28,5.63.11,3.1.55,6.32,1.31,9.34.44,1.73.6,5.97,3.31,5.65,1.8-.22,2.64-2.07,4.05-2.92,1.18-.71,2.46-.27,3.55.38,2.22,1.33,3.82,3.7,6.17,4.79,1.09.51,1.91.18,2.91-.4,1.7-1,3.01-2.55,3.79-4.35,2.06-4.74,2.99-9.77,3.58-14.89.62-5.38,1.35-10.73,1.66-16.14.27-4.62.03-9.47-.57-14.05-.53-4.08-1.66-8.15-4.42-11.3-.3-.34-.79-.12-.92.24-.89,2.4-.74,5-.64,7.5.09,2.35-.46,4.72-.09,7.05.46,2.91.8,5.74.93,8.69.12,2.76.6,5.45,1.02,8.18s1.26,5.51,2.2,8.19,1.75,5.36,2.74,7.99c.87,2.32,2.2,10.58,6.18,9.07.86-.33,1.57-1.03,2.2-1.68.48-.51.91-1.08,1.5-1.47.45-.3.97-.51,1.39-.85.64-.51.91-1.19,1.16-1.95.29-.88.44-2.47,1.26-3.03h-.56c.92.57,1.57,2.08,2.09,2.99.58,1,1.14,2.01,1.67,3.04.14.26.5.34.75.2.95-.55,1.98-1.37,2.69-2.21.36-.43.56-.93.82-1.41.42-.77,1.04-1.41,1.48-2.17,1.07-1.79,1.69-3.85,1.93-5.92.47-4.02.23-8.17.11-12.21-.11-3.62-.4-7.24-1.17-10.78-.45-2.09-.96-4.16-1.47-6.24-.45-1.82-.72-3.93-1.5-5.64-.42-.91-1.13-1.74-1.73-2.54-1-1.33-2.04-2.64-3.09-3.93-2.54-3.14-5.13-6.23-7.77-9.29-.95-1.11-1.91-2.21-2.88-3.3-.33-.36-.93-1.33-1.5-1.33-1.45.02.66,3.42.87,3.82,3,5.91,6.2,11.72,9.37,17.54.8,1.47,1.54,3,2.41,4.43,1.39,2.3,3.29,4.38,4.94,6.5,5.36,6.89,10.52,14.12,17.63,19.36,2.06,1.51,4.76,3.05,7.3,3.53,2.12.41,3.69-.52,4.56-2.47.94-2.1,1.48-4.91,1.24-7.19-.13-1.28-.49-2.49-.59-3.77-.1-1.44-.39-2.79-.81-4.16-1.35-4.47-4.43-8.17-7.6-11.49-2.08-2.18-4.28-4.25-6.46-6.33-2.31-2.2-4.55-4.5-6.91-6.65-5.69-5.18-10.42-11.77-17.01-15.88-2.49-1.55-5.33-2.53-8.29-1.87-.32.07-.54.53-.33.81,1.21,1.64,2.99,2.36,4.54,3.6.9.72,1.7,1.62,2.51,2.44,2.29,2.35,4.52,4.77,6.82,7.12,1.46,1.49,2.77,2.63,4.63,3.58,2.73,1.4,5.54,2.66,8.35,3.9,3.01,1.34,6.03,2.63,9.08,3.89,2.09.86,4.18,1.77,6.35,2.4,2.47.71,5.02,1.17,7.59,1.27,2.39.1,4.75-.24,7.11-.6,2-.31,4.22-.94,6.05-1.81,1.11-.53,2.73-1.28,2.89-2.68.18-1.53-1.17-3.57-2.04-4.73-1.14-1.53-2.5-2.99-3.84-4.35-2.37-2.4-4.91-4.63-7.5-6.79-5.95-4.96-12.29-9.76-19.22-13.27-3.03-1.53-6.18-2.38-9.42-3.36-2.48-.75-4.92-1.28-7.51-1.39-1.36-.06-3.36-.64-4.62.02s-.43,2.22.39,2.89c.54.44,1.23.72,1.82,1.1,1.14.75,2.31,1.46,3.49,2.14,4.51,2.58,9.37,4.73,14.48,5.79,9.32,1.94,19.18,3.81,28.63,1.76.95-.21,1.89-.03,2.86.08,1.53.16,3.06.33,4.58.48,3.28.31,6.67.69,9.96.38,1.26-.12,2.57-.38,3.49-1.32,1.03-1.06,1.19-2.61,1.01-4.02-.39-3.1-1.84-5.78-4.19-7.78-2.68-2.27-5.69-4.16-8.71-5.93-1.24-.72-2.5-1.44-3.81-2.05-1.97-.93-4.26-1.33-6.32-2.04-2.59-.89-5.05-2.11-7.72-2.75-2.34-.56-4.74-.84-7.13-1.14-2.71-.34-5.41-.74-8.13-1-3.09-.29-6.3-.53-9.37.02-1.48.26-4.22,1.08-4.08,3.07.11,1.5,2.14,1.99,3.31,2.26,2.5.56,5.12.67,7.67.75,4.78.15,9.58.01,14.36-.21,2.17-.1,4.37-.5,6.52-.79,2.73-.37,5.45-.79,8.16-1.32s5.24-1.15,7.79-1.96c2.69-.85,5.5-1.37,8.24-2.05,1.28-.32,2.56-.62,3.82-.97,1.19-.33,2.3-.96,3.43-1.45,2.22-.98,4.39-1.68,6.47-2.99,1.39-.88,2.78-2.21,2.26-4.02s-2.28-3.1-3.84-3.79-3.56-1.46-5.3-1.75c-2.32-.39-4.69-.42-7.02-.79-2.68-.42-5.45-.44-8.15-.48-2.92-.03-5.84-.04-8.75.14s-5.8.47-8.69.79-5.56.98-8.33,1.43-5.51.99-8.28,1.44c-2.54.42-5.04.95-7.62,1.05-4.17.16-8.65,2.11-11.21,5.48-.17.22-.05.64.2.75,1.21.55,2.49.52,3.72-.01,1.89-.81,3.64-1.73,5.66-2.22,2.24-.55,4.54-.88,6.83-1.18,2.65-.35,5.18-.59,7.78-1.32,3.61-1.02,7.24-2.09,10.7-3.55s6.92-2.91,10.07-4.91c1.58-1,3.01-2.17,4.66-3.04,1.5-.79,2.84-1.84,4.14-2.93.45-.38.8-.7,1.3-.96.4-.21.9-.42,1.13-.85.31-.58.38-1.44.58-2.06.42-1.33.87-2.65,1.32-3.98.33-.96,1.1-2.27.77-3.3s-1.47-1.02-2.07-1.75c-.78-.95.39-1.89,1.02-2.56s1.27-1.31,1.88-1.98c1.56-1.7,4.16-4.36,2.92-6.79-.49-.96-.18-1.33.17-2.25.2-.54.17-1.02.23-1.57.08-.71.44-1.35.63-2.03.43-1.51-.46-2.3-1.91-2.56-2.58-.46-5.61-.23-7.93,1.07-1.87,1.05-3.16,2.82-5.22,3.55-1.65.59-3.05,1.64-4.66,2.3s-2.79,1.74-4.25,2.57c-3.09,1.78-6.04,3.75-9.14,5.53-3.28,1.89-6.18,4.34-9.37,6.38s-6.57,3.89-9.39,6.36-5.75,4.91-8.37,7.64c-1.17,1.22-2.27,2.5-3.28,3.85-1.07,1.44-2.32,2.74-3.36,4.21-.82,1.15-1.95,2.14-1.99,3.63,0,.29.26.56.55.55,2.26-.11,3.99-1.46,6.01-2.26,2.26-.9,4.2-2.39,6.25-3.68s3.85-2.75,5.78-4.14c2.28-1.64,4.19-3.74,6.37-5.49,8.77-7.04,17.46-14.26,25.17-22.47,2.89-3.08,7.49-6.07,7.45-10.78,0-.3-.25-.55-.55-.55-1.17,0-2.15-.37-3.27-.59-1.2-.24-2.43-.33-3.64-.54s-2.07-.55-3.31-.39c-2.77.35-5.53,1.35-8.1,2.41-2.26.92-4.16,2.77-5.86,4.47-2.05,2.05-3.95,4.27-5.66,6.6-.77,1.05-1.53,2.13-2.11,3.3-.31.62-.66,1.34-.52,2.04.05.26.3.38.53.4,2.46.3,4.33-1.46,5.85-3.15.98-1.09,2.28-1.8,3.44-2.7,1.33-1.02,2.59-2.11,3.84-3.22,2.54-2.26,4.79-4.76,7.01-7.33,1.68-1.95,3.13-4.04,5.12-5.68,1.75-1.44,3.61-2.75,5.28-4.28,1.15-1.05,2.63-2.45,2.8-4.1.14-1.43-.84-2.84-2.35-2.71-.39.03-1.33.5-1.69.3-.66-.37.04-3.38.12-3.92.2-1.41.61-3.69-1.32-3.99-1.55-.24-3.42,0-4.98.12-1.7.13-3.41.4-5.04.92-4.35,1.39-8.48,3.63-12.6,5.57-4.99,2.35-9.56,5.91-13.64,9.59s-7.88,7.99-11.52,12.26c-2.19,2.57-4.51,5.07-6.62,7.7-2.34,2.92-4.33,6.22-6.12,9.49-.91,1.66-1.76,3.35-2.56,5.07s-1.33,3.6-1.8,5.51c-.45,1.81-.9,3.67-.93,5.55-.02,1.52-.09,2.96.71,4.31.09.15.29.29.47.27,1.46-.15,2.16-1.32,2.97-2.4,1.34-1.78,1.73-3.82,2.62-5.82,1.76-3.98,3.13-8.19,3.98-12.46.45-2.27.89-4.55,1.3-6.83s.95-4.31,1.31-6.49.31-4.27.46-6.43c.16-2.31.3-4.62.42-6.93.25-4.82.37-9.66.14-14.48-.19-3.99-.19-8.38-2.65-11.74-.45-.62-1.09-.92-1.7-1.37-.88-.66-1.31-1.48-1.66-2.5-.4-1.17-.76-2.4-2.2-2.46-.63-.03-1.16.16-1.71.46-.26.14-.51.37-.79.45-.72.2-.88-.27-1.09-.84-.47-1.3-.84-2.99-1.83-4.01-2.53-2.61-4.81,3.09-5.49,4.7-.81,1.91-1.37,3.92-1.84,5.94-.45,1.91-1.12,3.77-1.52,5.7-.46,2.25-.41,4.64-.73,6.92s-.5,4.4-.59,6.61c-.18,4.63.08,9.26.52,13.87s.94,9.15,1.45,13.71c.45,4.02.79,8.06,1.54,12.03.48,2.52.8,5.06,1.23,7.59.2,1.19.41,2.38.68,3.55.13.55.24,1.45.68,1.87,1.03.99,1.36-.94,1.41-1.59.09-1.16.05-2.33,0-3.49-.16-3.95-.54-7.89-.93-11.82-1.07-10.65-2.42-21.27-3.87-31.88-.63-4.65-1.29-9.29-2.01-13.93-.41-2.69-.78-5.4-1.38-8.06-.54-2.4-2.22-5.32-5.12-4.67-1.55.35-2.76,1.58-3.67,2.81-1.61,2.17-2.61,4.8-3.4,7.37-3.63,11.9-2.57,24.87-.98,37.03.76,5.85,1.76,11.67,3.11,17.41.89,3.76,1.79,7.8,3.63,11.23.4.75.91,1.62,1.75,1.93.66.25.95-.81.29-1.06h0Z"/>
  </g>
</svg>