<?xml version="1.0" encoding="UTF-8"?>
<svg id="Layer_2" data-name="Layer 2" xmlns="http://www.w3.org/2000/svg" viewBox="0 0 198.04 199.81">
  <g id="OBJECTS">
    <path d="M90.85,101.3c-3.34-1.09-7.41-.35-9.51,2.62-.91,1.28-2.04,3.58-.59,4.9,1.14,1.04,3.08.87,4.49.7,1.32-.16,2.64-.43,3.9-.82l-.62-.81c-1.27,2.31-3.05,6.25-1.45,8.77,1.1,1.73,3.68,1.81,5.41,1.14,1.96-.76,3.32-2.52,4.22-4.36.64-1.29,1.15-2.7,1.41-4.12l-1.06-.29c-.26,1.6-.13,3.28.2,4.86s.86,2.96,1.64,4.27c.53.89,1.22,2.01,2.21,2.47,3.32,1.55,4.75-4.85,5.01-6.86.21-1.59.34-3.59-.51-5.04s-2.57-2.05-3.43-.33c-.76,1.53-.53,2.61.16,4.11.86,1.84,2.3,3.82,4.47,4.09,2.67.33,6.05-2.23,6.39-4.91.21-1.61-.69-3.28-1.92-4.28l-.54.92c3.15,1.23,8.13-.47,7.98-4.45-.12-3.19-4.07-5.5-6.64-6.65v.95c1.28-.59,2.61-1.58,3.26-2.85.85-1.67.04-3.85-1.73-4.51-2.98-1.11-6.99,1.16-9.43,2.74l.75.75c.88-1.8,1.04-4.14-.08-5.87-1.45-2.23-3.74-2.59-5.96-1.38s-4.15,3.38-5.49,5.56c-.97,1.59-2.26,4.14-1.21,5.99.88,1.55,3.16,1.88,4.06.21,1.08-2,.53-5.02-.21-7.03s-2.32-3.08-3.77-4.63c-1.9-2.04-3.71-4.23-5.97-5.89-1.57-1.16-3.8-2.15-5.36-.43-2.05,2.26-1.85,6.24-1.11,8.95.64,2.35,2.1,5.64,4.62,6.53,1.69.59,3.22-.62,3.3-2.33.1-2.37-.67-4.89-1.26-7.15-1.06-4.03-2.39-7.98-3.82-11.89-3.59-9.81-7.97-19.32-13.05-28.45-3.91-7.04-8.09-14.34-13.49-20.37-.99-1.1-2.41-2.86-4.04-2.91-2.12-.06-5.01,1.13-4.61,3.66.07.45.23.91.47,1.3l.86-.67c-2.57-2.54-7.33-4.6-10.38-1.65-2.33,2.25-1.71,6.35-.64,9.07l1.01-.42c-1.88-2.78-5.53-5.12-8.7-2.85-2.84,2.03-2.38,5.98-1.64,8.94,1.42,5.72,4.23,11.32,7.13,16.41,2.71,4.77,6,9.2,9.44,13.47,7.19,8.92,15.28,17.52,24.46,24.42,1.56,1.17,3.35,2.75,5.26,3.32.89.27,1.64-.14,1.43-1.15-.3-1.42-1.57-2.82-2.42-3.94-1.58-2.08-3.28-4.08-5.01-6.05-3.06-3.49-6.09-7.15-9.79-9.99-3.14-2.41-6.55-4.46-10-6.39-8.04-4.49-16.47-8.37-25.04-11.74-3.22-1.27-6.47-2.49-9.8-3.43-1.32-.37-3.66-1.29-5.01-.56-1.74.94-1.63,3.53-1.54,5.18.05.88.22,1.86.08,2.74s-.86,1.03-1.58,1.42c-1.7.92-3.55,2.01-5.02,3.25-1.04.87-1.26,2.13-1,3.42.37,1.85,1.51,3.52,2.65,4.99,1.7,2.2,3.74,4.14,5.89,5.9,4.33,3.54,9.32,6.01,14.09,8.89,9.28,5.61,18.28,11.82,27.97,16.71,3.8,1.92,7.64,3.29,11.88,3.88,1.83.26,3.72.44,5.57.29.86-.07,2.29-.16,2.75-1.05.51-.99-.63-1.82-1.33-2.28-2.22-1.44-4.97-2.35-7.48-3.13-6.7-2.08-14.02-1.96-20.92-1.29s-13.84,2.03-20.61,3.72c-2.59.65-5.17,1.35-7.74,2.1-1.62.47-3.68.79-5,1.93-2.36,2.05.43,4.94,1.91,6.55,1.25,1.35,2.61,2.65,3.66,4.17.91,1.31,1.2,2.31.98,3.85-.23,1.65,1.71,2.58,2.95,3.12,2.74,1.2,5.74,1.82,8.67,2.36,8.46,1.56,17.19,2.14,25.79,1.86,3.93-.13,7.9-.44,11.76-1.26,3.38-.72,6.26-1.96,9.11-3.92.53-.36,2.44-1.39,1.94-2.3-.41-.77-1.79-.14-2.36.05-4.57,1.59-8.95,3.98-13.16,6.34-5.29,2.97-10.41,6.29-14.78,10.52-3.99,3.87-7.24,8.37-10.45,12.88-1.84,2.58-3.69,5.15-5.59,7.68-1.2,1.61-2.58,3.47-2.86,5.52-.35,2.58,1.88,3.57,4.09,3.67,1.62.07,3.32-.17,4.89-.57l-.54-.92c-2.12,2.18-1.79,5.75,1.24,6.85,2.37.86,5.17.2,7.47-.54,4.16-1.34,8.26-3.47,11.72-6.13,3.78-2.91,8.78-8.39,7.18-13.71-1.02-3.39-4.69-3.36-6.84-1.04-3.09,3.32-4.77,8.23-6.12,12.47-1.48,4.66-2.82,9.9-2.31,14.82.16,1.57.55,3.33,1.76,4.44,1.43,1.3,3.3.93,4.98.43,6.84-2.02,13.01-6.35,18.2-11.14,1.85-1.71,3.43-3.63,4.97-5.62s2.91-3.94,4.15-6.06c1.35-2.3,2.35-4.78,3.46-7.19,1.04-2.26,2-4.53,3.27-6.68.56-.94,1.11-1.88,1.57-2.88.52-1.12,1.22-2,1.87-3.03.55-.87.45-1.89.77-2.87.4-1.22.95-2.37,1.21-3.64.24-1.18.35-2.37.55-3.56.21-1.25.56-2.46.73-3.72.32-2.39.33-4.81.33-7.21,0-.58-.72-.7-1.02-.28-1.12,1.54-1.93,3.3-2.54,5.1-.7,2.07-.89,4.21-1.27,6.35-.81,4.53-2.13,8.98-2.5,13.58s-.26,9.39-.13,14.05c.12,4.22.54,8.41,1.41,12.54,1.67,7.9,5.43,14.85,10.38,21.16.87,1.1,2.08,2.2,3.59,2.03,1.65-.19,3.28-1.63,4.47-2.69,1.44-1.28,3.06-2.22,4.3-3.72s2.49-2.73,3.26-4.51.72-3.53.72-5.46v-6.26c0-2.23-.51-4.5-.85-6.71s-.74-4.56-1.2-6.82c-.97-4.8-2.3-9.53-3.34-14.32-.96-4.4-1.63-8.85-2.68-13.22-.74-3.08-1.78-6.39-4.31-8.5-.72-.6-1.98-1.27-2.79-.41-.71.77-.3,2.32-.22,3.23.2,2.1.28,4.18.29,6.29s.3,4.28.63,6.43c.65,4.21,1.34,8.37,2.6,12.45s2.96,8.27,4.98,12.16c1.05,2.01,2.2,3.97,3.28,5.97s2.09,4.02,3.29,5.93c1.13,1.8,2.1,3.69,3.13,5.55.52.94,1.02,1.96,1.68,2.81s1.45,1.61,2.1,2.49c1.28,1.73,2.4,3.6,3.8,5.24.87,1.01,1.77,2.04,3.19,1.41.71-.32,1.29-.72,1.78-1.32.44-.54.76-1.28,1.36-1.66h-.56c.78.54.37,1.82,1.58,1.9.84.05,1.48-.72,1.89-1.36.53-.85.83-1.88,1.28-2.78.31-.61.61-1.11.67-1.78.07-.9.02-1.76.38-2.61l-.62.25c.92.39,1.3,1.41,1.66,2.26s.86,1.57,1.35,2.32c.83,1.26,2.03,2.9,3.34,3.69,1.14.69,2.65.12,3.16-1.1.36-.86.53-1.92.75-2.83.25-1,0-2.1.27-3.13,1.09-4.15.88-8.6.48-12.84-.21-2.2-.15-4.42-.49-6.61s-.74-4.42-1.31-6.54c-.61-2.29-1.04-4.64-1.87-6.87s-1.62-4.27-2.37-6.43c-.71-2.05-1.45-4.22-2.64-6.06s-2.41-3.75-3.62-5.62c-2.35-3.63-5.2-6.89-8.39-9.81-1.6-1.47-3.33-2.77-5.03-4.12-1.36-1.09-2.85-2.35-4.64-2.6-1-.14-2.52-.11-3.16.81-.7,1.01-.5,3.04-.31,4.15.71,4.16,3.01,7.95,5.3,11.42,4.83,7.31,11.45,13.29,18.54,18.36,3.47,2.48,7.22,4.54,11.14,6.2,2.02.86,4.08,1.61,6.17,2.28s4.17,1.04,6.26,1.54c.99.24,1.98.46,2.98.65,1.17.22,2.15.56,3.25,1.01,1.96.8,3.97,1.5,6.12,1.53,1.87.02,4.77.01,6.03-1.63.86-1.13.28-2.15-.36-3.22-1.04-1.75-2.04-3.5-3.15-5.21-2.63-4.05-4.53-8.54-7.52-12.35-1.33-1.69-2.26-3.64-3.62-5.3s-2.84-3.23-4.35-4.74c-3.08-3.06-6.46-5.48-10.23-7.61-1.33-.75-2.88-1.38-4.41-1.45-.35-.02-.63.37-.53.7.5,1.71,1.75,3.11,2.86,4.46.56.68,1.07,1.42,1.7,2.03.86.82,1.9,1.49,2.88,2.15,1.91,1.28,3.57,2.87,5.51,4.11,2.1,1.34,4.18,2.71,6.25,4.09,4.14,2.77,8.17,5.7,12.32,8.47,2.08,1.39,4.13,2.79,6.32,4,1.93,1.07,3.59,1.53,5.81,1.36,1.5-.11,3.07-.48,2.98-2.26-.11-2.15-.73-4.4-1.38-6.44s-1.12-4.35-1.91-6.43-1.9-3.83-3.13-5.55c-2.55-3.55-5.55-6.73-8.99-9.43-1.73-1.36-3.55-2.61-5.45-3.73s-3.86-1.99-5.6-3.34c-1.88-1.45-3.72-2.75-5.76-3.97-2.24-1.34-4.52-2.6-6.85-3.78-4.52-2.27-9.2-4.75-14.38-4.83-.71-.01-.7,1.05,0,1.1.84.06,1.58.44,2.43.46.34,0,.68,0,1.01,0h13.82c2.35,0,4.69.1,7.04.17,1.83.05,3.7.12,5.52-.15,3.23-.48,6.46-.47,9.72-.47,2.57,0,5.08.14,7.59-.5,2.25-.57,4.7-.95,6.74-2.11,1.36-.78,2.78-2.08,2.71-3.79-.06-1.36-1.1-2.41-2.15-3.15-3.05-2.15-7.18-2.84-10.77-3.45-6.11-1.04-12.3-1.02-18.48-.94-6.92.09-13.74.73-20.54,1.99-3.09.57-6.15,1.31-9.21,2-2.5.56-5.13,1.48-6.84,3.49-.31.37-.1.91.39.94.81.05,1.56.35,2.36.43.85.09,1.73-.01,2.57-.09,1.76-.17,3.57-.22,5.32-.48,3.73-.54,7.28-1.75,10.82-3.02s6.87-2.6,10.17-4.28,6.94-3.33,10.36-5.11c6.29-3.26,12.49-6.99,17.58-11.96,2.32-2.26,4.97-4.22,7.06-6.7,1.03-1.23,1.88-2.6,2.96-3.79.78-.85,1.73-1.83,1.85-3.04.28-2.74-4.17-3.42-6.1-3.69-3.83-.54-7.82-.25-11.67-.25l.55.55c.1-.83.81-1.43.92-2.3.04-.3-.28-.55-.55-.55-1.47,0-3.41-.36-4.76.24-1.08.48-2.22.91-3.13,1.69-1.32,1.12-1.42,3.79.87,3.14s3.96-1.89,5.5-3.66c1-1.16,2.8-3.06,2.52-4.75-.36-2.22-4.19-1.28-5.59-1.24-2,.05-3.66.26-5.55.91-1.66.57-3.3,1.18-4.91,1.89-3.46,1.54-6.62,3.77-9.7,5.96s-6.3,4.58-9.34,7.02c-6.65,5.35-12.76,11.33-18.2,17.91l.86.67c.63-1.12,1.48-1.6,2.48-2.33.81-.59,1.1-1.43,1.7-2.19.7-.9,1.82-1.43,2.63-2.25.86-.88,1.65-1.85,2.48-2.76,1.67-1.82,3.35-3.63,4.95-5.51,1.46-1.71,2.77-3.54,4.21-5.26,3-3.58,6.23-6.98,9.45-10.36,1.41-1.47,2.75-3,3.96-4.63,1.38-1.86,2.32-3.87,3.41-5.89s2.4-4.09,3.4-6.23c.9-1.92,2.04-3.72,2.85-5.68,1.4-3.39,1-7.08-2.1-9.37-2.76-2.04-6.46-1.48-8.85.89-.85.85-1.78,1.57-2.12,2.8-.26.93-.03,2.73,1.28,2.52,1.42-.23,2.53-1.7,3.22-2.85s1.45-2.81.94-4.2c-.93-2.57-4.65-.9-6.18.09l.75.75c1.12-2.21,3.22-5.31,2.37-7.91-.81-2.46-3.4-1.74-5.12-.8-2.25,1.23-4.41,2.95-6.31,4.67-3.44,3.11-6.73,6.4-9.63,10.03-1.5,1.88-3.07,3.71-4.56,5.6s-2.82,3.81-4.05,5.87c-1.62,2.71-2.81,6.01-4.16,8.58-1.8,3.42-3.93,6.68-5.83,10.04-2.35,4.16-4.85,8.43-6.4,12.97-.36,1.07-.97,2.68-.4,3.79.46.9,1.48.89,2.18.29,1.04-.87,1.61-2.38,2.11-3.59.88-2.1,1.57-4.29,2.21-6.47,1.6-5.39,2.89-10.88,4.14-16.36.84-3.7,1.96-7.5,2.4-11.27.61-5.21.97-10.49,1.24-15.73.16-3.26.19-6.54.21-9.8.02-3.95-.09-8.1-1.4-11.87-.43-1.24-.96-2.11-2.25-2.56-1.39-.48-2.91-.39-4.31-.86-.97-.32-1.54-.89-2.17-1.65-.39-.47-.85-.92-1.46-1.08-1.18-.32-2.15.6-2.82,1.46-1.1,1.42-1.92,3.03-3,4.48-1.38,1.84-2.59,3.83-3.5,5.95s-1.5,4.57-2.16,6.87c-.59,2.07-.88,4.13-1.32,6.21s-.93,4.06-1.24,6.15c-.34,2.32-1.04,4.56-1.37,6.89-.35,2.45-.34,4.89-.54,7.35-.22,2.59-.43,5.19-.65,7.78-.28,3.3-.77,6.64-.71,9.96.04,2.47.24,4.95.46,7.41.23,2.59.5,5.18.88,7.75.14.93.28,1.86.49,2.77.1.42.2,1.07.54,1.38,1.01.9,1.34-1,1.44-1.59.34-1.97.51-3.97.7-5.96.5-5.32.87-10.65,1.31-15.97.15-1.81.37-3.6.59-5.4.6-5.06.31-10.17.27-15.25s.04-10.17-.3-15.26c-.28-4.11.16-8.76-2.33-12.33-.64-.91-1.57-1.8-2.75-1.31-1.33.56-2.06,2.1-3.26,2.88l.81.33c-.34-1.24-.18-2.52-.68-3.72-.28-.65-.61-1.64-1.3-1.98-1.3-.65-2.52,1.06-3.42,1.7l.83.47c-.12-1.7-1.78-3.42-3.06-4.39-.54-.41-1.22-.85-1.94-.79-.77.07-1.06.76-1.37,1.38-2.86,5.83-4.68,12.19-5.61,18.63-1.03,7.16-.72,14.6-.24,21.8s1.65,14.41,3.79,21.38c1.16,3.79,2.3,7.59,3.87,11.24.64,1.48,1.26,3.12,2.23,4.42.75,1,1.81,1.45,3,1.71.69.15.98-.91.29-1.06-1.12-.25-2-.64-2.64-1.63-.79-1.24-1.37-2.65-1.94-3.99-1.28-2.99-2.28-6.09-3.22-9.2-1.91-6.3-3.35-12.58-3.98-19.14-1.26-12.98-1.33-26.4,3.29-38.77.42-1.12.83-2.23,1.38-3.27.26-.49.88-2.29,1.14-2.37.75-.24,1.84,1.01,2.28,1.47.62.65,1.55,1.64,1.62,2.6.03.38.46.74.83.47.61-.43,1.96-2.15,2.62-1.37.5.6.78,1.75.86,2.5s.11,1.47.31,2.21c.09.33.51.52.81.33.56-.37,1.05-.8,1.51-1.29.41-.43.96-1.3,1.55-1.5,1.69-.57,2.78,3.64,3.03,4.78.45,2.03.38,4.06.48,6.12.11,2.33.36,4.66.4,6.99.06,4.69,0,9.38.08,14.07.08,4.3,0,8.52-.56,12.79-1.08,8.26-1,16.66-2.26,24.91-.07.43-.36,1.12-.31,1.54,0,.08-.03.1-.04.1-.04-.06.77-.14.69-.02.02-.03-.17-.48-.19-.52-.52-1.75-.68-3.65-.9-5.45-.55-4.51-1.09-9.13-1-13.68.07-3.52.57-7.08.86-10.59.2-2.34.48-4.7.59-7.05s.18-4.69.57-7.04c.36-2.2.97-4.33,1.31-6.53.28-1.81.7-3.57,1.11-5.35.45-1.93.65-3.86,1.18-5.78.58-2.07,1.11-4.2,1.84-6.23.77-2.16,1.93-4.18,3.24-6.05.56-.8,1.23-1.54,1.77-2.35.43-.64.76-1.35,1.17-2,.38-.61.83-1.36,1.45-1.76.94-.6,1.47.25,2.05.91.91,1.04,2.04,1.59,3.38,1.86,1.21.24,2.77.16,3.84.84,1.24.8,1.51,3.22,1.76,4.56.72,3.88.62,7.88.52,11.81-.13,4.98-.34,9.91-.73,14.88-.3,3.81-.63,7.52-1.45,11.25-2.02,9.28-3.9,18.74-7.06,27.71-.54,1.54-1.11,3.14-1.99,4.52-.21.33-.47.77-.84.95-.12.06-.2.1-.31-.12-.42-.9.34-2.55.64-3.38.71-1.96,1.63-3.85,2.58-5.71,2.1-4.15,4.44-8.17,6.8-12.18,1.92-3.26,3.57-6.45,5.1-9.93,1.76-4.02,4.5-7.51,7.26-10.89s5.37-6.61,8.39-9.63c2.25-2.25,4.59-4.39,7.12-6.32,1.16-.88,4.75-3.99,6.21-2.44.95,1.01.28,2.79-.13,3.89-.49,1.29-1.17,2.49-1.79,3.71-.23.46.26,1.07.75.75,1.15-.74,4.92-2.56,4.67.2-.12,1.28-.96,2.65-1.8,3.59-.24.27-1.07,1.24-1.49,1.11-.78-.23.21-1.91.46-2.23.3-.39.68-.6,1.02-.92.6-.56,1.02-1.05,1.78-1.41,1.66-.77,3.31-1.06,5-.19,1.42.73,2.57,2.04,3.08,3.56.65,1.95.03,3.96-.8,5.74-1.47,3.14-3.16,6.24-4.87,9.26-.9,1.58-1.64,3.22-2.51,4.8-.93,1.7-2.14,3.28-3.39,4.76-2.16,2.55-4.57,4.88-6.82,7.36-2.52,2.77-5,5.54-7.29,8.51-2.58,3.35-5.56,6.38-8.38,9.53-.8.89-1.58,1.62-2.53,2.36-.72.56-1.14,1-1.58,1.77-.55.96-1.24,1.29-2.08,1.93-.71.54-1.27,1.21-1.7,1.98-.29.52.45,1.16.86.67,8-9.68,17.46-17.82,27.7-25.03,2.51-1.77,5.07-3.6,7.82-4.98,1.33-.67,2.7-1.23,4.09-1.75,1.61-.6,3.29-1.33,5.01-1.52,1.38-.15,2.78-.1,4.16-.22.62-.05,2.41-.3,2.65.51.17.58-.61,1.6-.9,2.03-.49.74-1.07,1.43-1.67,2.09-.69.75-1.42,1.52-2.3,2.04-.59.34-1.23.53-1.87.76-.52.19-1.32.53-.89-.43.46-1.03,2.1-1.57,3.06-1.99,1.34-.59,3.19-.28,4.64-.28l-.55-.55c-.1.83-.81,1.43-.92,2.3-.04.3.28.55.55.55,3.27,0,6.58-.14,9.85.07,1.27.08,2.61.2,3.84.55.66.19,1.3.47,1.9.8,1.03.58,1.33,1.23.7,2.29-.59.98-1.5,1.74-2.17,2.65-1.05,1.42-2.1,2.81-3.36,4.06-2.14,2.1-4.42,4.08-6.62,6.13-4.83,4.51-10.73,7.92-16.57,10.94-3.07,1.58-6.24,2.95-9.3,4.56s-6.37,3.08-9.7,4.24c-3.61,1.26-7.18,2.59-10.96,3.24-1.82.31-3.69.35-5.52.54-.85.09-1.73.2-2.59.16-.94-.04-1.82-.4-2.75-.46l.39.94c1.59-1.88,4.02-2.69,6.35-3.21,2.47-.55,4.93-1.13,7.41-1.64,5.7-1.17,11.5-1.94,17.32-2.18s11.63-.36,17.39.1c4.41.35,9.16.95,13.32,2.59,1.39.55,3.1,1.32,3.95,2.62,1.21,1.86-.94,3.47-2.47,4.17-2.06.95-4.55,1.41-6.76,1.89-2.48.54-5.24.23-7.76.23-2.82,0-5.61.07-8.41.48-1.78.26-3.61.2-5.41.15-2.16-.06-4.32-.17-6.49-.17h-14.22c-.36,0-.73.01-1.1,0-.86-.03-1.63-.4-2.49-.46v1.1c4.44.07,8.53,2.03,12.42,3.97,3.65,1.82,7.36,3.71,10.76,5.97,1.57,1.04,2.93,2.35,4.5,3.39s3.43,1.85,5.08,2.87c3.61,2.22,6.94,4.9,9.81,8.01,2.69,2.92,5.45,6.4,6.74,10.21.65,1.91,1.08,3.9,1.7,5.82.31.98.56,1.98.79,2.99s.73,2.34.56,3.31c-.19,1.13-1.86,1.02-2.78,1.04-1.34.03-2.39-.21-3.59-.82-1.98-1.01-3.81-2.23-5.66-3.46-3.77-2.51-7.45-5.13-11.19-7.69-4.08-2.79-8.39-5.3-12.23-8.41-1.81-1.47-4.02-2.51-5.49-4.36-1.27-1.59-2.96-3.17-3.55-5.16l-.53.7c1.78.09,3.39,1.05,4.87,1.94,1.75,1.05,3.47,1.99,5.06,3.27,2.98,2.41,5.68,5.17,8.15,8.1,1.26,1.48,2.08,3.28,3.25,4.82,1.29,1.71,2.44,3.37,3.5,5.23,1.12,1.96,2.24,3.91,3.35,5.87.98,1.72,2.15,3.33,3.09,5.08.51.94,2.31,2.85,1.41,3.89-.72.83-2.27.95-3.28,1.04-1.22.1-2.46.11-3.67-.13-1.93-.37-3.66-1.28-5.49-1.94-.95-.34-2.03-.42-3.02-.63s-1.93-.45-2.9-.68c-1.84-.44-3.65-.79-5.45-1.38-3.76-1.23-7.43-2.75-10.9-4.64-6.91-3.78-13.3-9.01-18.6-14.83-2.75-3.02-5.07-6.28-7.15-9.78-1.05-1.78-2.1-3.58-2.66-5.58-.46-1.65-1.04-3.51-.67-5.25s3.38-.6,4.34,0c1.64,1.03,3.2,2.37,4.7,3.59,2.92,2.38,5.63,5.1,8,8.04,1.35,1.68,2.5,3.52,3.65,5.35,1.02,1.63,2.23,3.21,3.1,4.92.96,1.9,1.65,3.93,2.33,5.94s1.56,3.96,2.21,5.97c1.23,3.79,2.05,7.8,2.75,11.72.38,2.15.34,4.29.52,6.45s.49,4.3.43,6.47c-.05,1.92-.34,3.82-.56,5.73-.08.68-.33,1.31-.4,1.99-.1.94-.04,1.83-.31,2.74s-.24,2.57-1.41,2.82c-.88.19-1.56-.91-2.1-1.5-1.21-1.31-2.26-2.75-2.97-4.39-.49-1.13-1.06-2.08-2.24-2.57-.2-.08-.54.05-.62.25-.4.94-.44,1.82-.53,2.82-.11,1.21-.93,2.17-1.36,3.28-.15.39-.67,2.06-1.3,1.87-.17-.05-.28-.74-.38-.94-.18-.36-.4-.57-.73-.8-.16-.11-.4-.1-.56,0-1.11.69-1.43,2.23-2.69,2.73-.67.26-1.03.33-1.53-.15-.27-.26-.53-.55-.78-.84-.77-.9-1.44-1.89-2.12-2.87-1.07-1.54-2.17-3.01-3.39-4.44-1.28-1.49-2.13-3.43-3.06-5.15-3.82-7.06-8.28-13.85-11.32-21.32-1.46-3.61-2.65-7.34-3.48-11.14-.39-1.8-.65-3.63-.94-5.44-.33-2.09-.75-4.2-.84-6.32s.04-4.05-.15-6.07c-.06-.69-.13-1.38-.2-2.08-.05-.5-.34-1.54-.09-2,.56-1.05,2.43,1.6,2.85,2.12,1.09,1.33,1.63,3.04,2.06,4.68.99,3.73,1.57,7.51,2.33,11.29.87,4.28,1.83,8.55,2.92,12.77s1.8,8.28,2.44,12.47c.32,2.13.7,4.23.7,6.39v5.58c0,1.97.03,3.78-.89,5.57-.81,1.58-2.1,2.88-3.26,4.2-.6.68-1.33,1.23-2.07,1.75s-1.38,1.09-2.07,1.68c-1.53,1.3-3.53,2.97-5.37,1.28-.55-.51-.92-1.15-1.38-1.73-.61-.76-1.25-1.47-1.78-2.3-1.01-1.56-2.03-3.13-2.95-4.74-1.88-3.27-3.27-6.77-4.22-10.42-2.02-7.75-2.06-15.74-1.99-23.69.02-2.07.08-4.14.3-6.2.25-2.29.79-4.52,1.28-6.76.43-2,.85-4,1.19-6.01s.53-3.82,1.15-5.68c.58-1.71,1.37-3.37,2.43-4.83l-1.02-.28c0,2.21,0,4.42-.25,6.62-.27,2.32-.8,4.64-1.2,6.94-.34,2-1.36,3.78-1.7,5.78-.2,1.18-.89,1.84-1.52,2.82-.56.88-.9,1.89-1.41,2.8-1.01,1.83-2.04,3.57-2.9,5.48-.97,2.17-2,4.31-2.95,6.48-1.86,4.23-4.67,8.02-7.62,11.54s-6.65,6.54-10.51,9.09c-3.17,2.09-6.58,3.89-10.23,4.97-1.46.43-3.14.86-4.24-.5-.96-1.18-1.13-2.95-1.18-4.41-.08-2.18.19-4.38.59-6.52.88-4.74,2.36-9.46,4.44-13.82,1.04-2.17,3.07-6.92,6.2-6.47,1.38.2,2,1.62,2.13,2.86.22,2.14-.66,4.3-1.76,6.09-1.83,2.95-4.57,5.28-7.47,7.13-3.35,2.13-7.13,4.02-11.02,4.89-1.78.4-4.23.75-5.8-.47-.94-.73-1.18-1.94-.82-3.04.18-.57.51-1.07.92-1.5.38-.4,0-1.06-.54-.92-1.44.37-2.97.58-4.45.54-.89-.03-2.05-.12-2.72-.78-.88-.87-.35-2.33.09-3.28,1.09-2.37,2.91-4.39,4.44-6.48,1.62-2.22,3.2-4.48,4.81-6.71,2.97-4.13,6.09-8.14,9.85-11.58,4.25-3.9,9.17-6.97,14.2-9.76,3.92-2.17,7.98-4.38,12.23-5.86.22-.08,1.15-.2,1.3-.37.06-.07-.17-.58-.23-.58-.06,0-.43.4-.51.47-1.29,1.06-2.8,2.01-4.3,2.76-2.69,1.33-5.77,1.91-8.71,2.33-7.86,1.11-15.96.89-23.84.18-3.71-.34-7.42-.81-11.07-1.54-2.58-.51-5.26-1.08-7.66-2.2-.64-.3-1.41-.66-1.86-1.23-.4-.52-.03-.9,0-1.62.11-2.89-2.73-5.38-4.53-7.29-1.37-1.45-4.87-4.53-1.85-6.05,1.68-.85,3.73-1.21,5.53-1.72,2.51-.71,5.03-1.37,7.56-1.98,6.34-1.53,12.77-2.76,19.26-3.36s13.43-.71,19.79,1.18c2.51.74,5.19,1.64,7.43,3.03.75.46,1.58.89.44,1.21-1.4.39-3.02.25-4.45.14-2.06-.16-4.11-.51-6.12-1.02-3.77-.96-7.24-2.78-10.63-4.64-4.43-2.43-8.74-5.08-13.03-7.75s-8.52-5.35-12.84-7.93-9.07-4.98-13.09-8.32c-1.96-1.63-3.83-3.41-5.41-5.42-1.1-1.4-2.32-3.11-2.58-4.93-.29-2.04,1.6-2.74,3.07-3.7,1.14-.75,2.31-1.39,3.5-2.06,1.36-.77,1.17-2.4,1.08-3.77s-.52-4.49.96-5.06c1.19-.46,3.58.52,4.79.87,7.03,2.08,13.85,5.03,20.5,8.1,7.35,3.39,14.73,7.04,21.39,11.67,3.07,2.13,5.55,4.64,8.08,7.39,3.35,3.64,6.83,7.35,9.6,11.46.35.52.62,1.08.95,1.61.07.11.06.31.13.41,0,0,.16-.25.24-.2-.05-.03-.16.01-.22-.03-.42-.39-1.37-.66-1.89-.98-1.03-.65-2.02-1.36-2.99-2.08-4.05-3.02-7.8-6.45-11.4-9.99-7.7-7.59-15.01-15.9-20.78-25.07-2.97-4.71-5.5-9.84-7.42-15.07-1.07-2.91-2.94-7.76-.79-10.63,2.36-3.15,6.26-.84,7.97,1.7.33.48,1.25.19,1.01-.42-.87-2.2-1.55-5.47-.06-7.53,2.33-3.22,7.02-1.01,9.24,1.18.44.43,1.2-.12.86-.67-.63-1.03-.39-2.16.72-2.73,2.02-1.04,3.2-.54,4.65.86,4.24,4.12,7.44,9.54,10.49,14.55,8.5,13.97,15.6,29.11,20.13,44.85.68,2.36,1.35,4.77,1.67,7.21.14,1.07.43,3.17-1.31,3.03-2.22-.17-3.67-3.71-4.21-5.45-.75-2.42-1.18-6.35.76-8.39,1.42-1.49,3.63.34,4.77,1.32,1.79,1.54,3.33,3.35,4.94,5.07,1.13,1.21,2.62,2.13,3.3,3.67.79,1.8,1.29,4.34.66,6.26s-2.58.63-2.53-.92c.07-2.05,1.51-4.13,2.76-5.65s3.01-3.33,5.03-3.8c2.62-.61,4.09,2.48,3.72,4.67-.09.54-.24,1.1-.48,1.59-.23.46.26,1.07.75.75,2.09-1.34,4.75-2.79,7.28-2.83,1.82-.03,3.3,1.65,2.21,3.4-.6.96-1.68,1.69-2.69,2.16-.36.16-.36.79,0,.95,2.17.97,5.17,2.63,5.96,5.02.67,2.03-1.37,3.98-3.22,4.37-1.05.22-2.23.1-3.23-.29-.5-.2-.95.58-.54.92.67.55,1.25,1.32,1.5,2.16.7,2.33-1.81,4.55-3.87,5.07s-3.49-.99-4.41-2.6c-.69-1.21-1.16-2.01-.82-3.23.1-.34.28-1.15.72-1.2.64-.06,1.16,1.11,1.3,1.6.36,1.28.25,2.75.04,4.05-.19,1.22-1.31,6.58-3.45,5.58-.95-.44-1.62-1.84-2.07-2.72-.58-1.14-.98-2.37-1.2-3.62s-.32-2.79-.14-3.95c.11-.69-.93-.99-1.06-.29-.62,3.33-2.68,8.08-6.67,8.05-4.76-.03-2.25-6.23-.92-8.63.22-.41-.15-.95-.62-.81-1.47.45-7.28,2.15-7.68-.27-.2-1.21.94-2.81,1.71-3.59.91-.93,2.1-1.49,3.38-1.72,1.4-.25,2.95-.15,4.3.3.67.22.96-.84.29-1.06h0Z"/>
  </g>
</svg>